<?xml version="1.0" encoding="UTF-8" standalone="no"?>
<svg width="80px" height="80px" viewBox="0 0 80 80" version="1.1" xmlns="http://www.w3.org/2000/svg" xmlns:xlink="http://www.w3.org/1999/xlink" xmlns:sketch="http://www.bohemiancoding.com/sketch/ns">
    <title>Slice 1</title>
    <description>Created with Sketch (http://www.bohemiancoding.com/sketch)</description>
    <defs></defs>
    <g id="Page-1" stroke="none" stroke-width="1" fill="none" fill-rule="evenodd" sketch:type="MSPage">
        <g id="fhca_eldercare_florida_logo_00" sketch:type="MSLayerGroup">
            <g id="Idea__x23_2" sketch:type="MSShapeGroup">
                <path d="M35.8,73.5 C37.6,74.2 39.4,74.1 41.1,73.4 C41.2,75.1 41.1,76.7 40.9,78.3 C41.8,77.4 42.5,76.5 43.2,75.3 C42.6,76.6 41.9,77.6 40.9,78.4 C40.6,78.6 40.3,78.8 40.1,79 L40,79.1 C38.5,80 36.8,80.3 35.3,79.6 C34.8,79.4 34.4,79.2 34.1,78.9 C34.1,77 34.8,75.2 35.8,73.5 L35.8,73.5 Z" id="Shape" fill="#526899"></path>
                <path d="M60.8,66.8 L60.8,66.8 C62.6,67.5 64.2,68.4 65.6,69.5 L65.6,69.5 C65.4,70.3 64.9,71 64.3,71.6 C63.5,72.4 62.5,72.8 61.4,72.9 C60.2,71.7 59.3,70.2 58.5,68.6 C59.1,68.4 59.6,68.1 60.1,67.6 C60.4,67.4 60.6,67.1 60.8,66.8 L60.8,66.8 Z" id="Shape" fill="#526899"></path>
                <path d="M50.7,27.4 C53.7,26.6 56.4,25.6 58.7,24.4 C59.2,25.4 59.9,26.3 60.6,27.2 C61,27.7 61.5,28.2 61.9,28.7 C59.7,30.4 57.7,32.6 56,35.3 C55.2,34.6 54.4,33.8 53.7,33 C52.4,31.2 51.3,29.4 50.7,27.4 L50.7,27.4 Z" id="Shape" fill="#8E95B9"></path>
                <path d="M7.9,5.4 C9,4.7 10.2,4.3 11.4,4.2 L11.4,4.2 C11.9,4.2 12.3,4.3 12.8,4.3 C13.8,4.4 14.7,4.7 15.6,5 L15.7,5 C19,6.3 21.8,8.8 23.8,12.2 C25,14.1 25.9,16.3 26.5,18.8 L26.8,20 C26.7,20 26.5,20 26.4,19.9 C25,19.7 23.7,19.4 22.5,19.2 C21.9,19.1 21.2,18.9 20.6,18.7 C20,18.6 19.4,18.4 18.8,18.2 C18,18 17.3,17.7 16.6,17.5 C16.4,16.9 16.2,16.2 16,15.6 C15.9,15.3 15.8,15 15.7,14.8 C15.6,14.5 15.5,14.2 15.4,14 C15.3,13.7 15.2,13.4 15,13.1 L14.4,11.9 C14.3,11.7 14.2,11.5 14.1,11.4 C14,11.2 13.9,11 13.7,10.8 C13.2,10.1 12.7,9.4 12.2,8.8 C11.7,8.3 11.2,7.7 10.7,7.3 C10.4,7 10.1,6.8 9.8,6.5 C9.6,6.5 9.4,6.4 9.3,6.3 C8.8,6 8.4,5.7 7.9,5.4 L7.9,5.4 Z" id="Shape" fill="#8E95B9"></path>
                <path d="M17.6,25.6 C18.1,25.8 18.5,26 19,26.1 C20.4,26.6 21.9,27.1 23.5,27.5 L24.7,27.8 C25.6,28 26.5,28.2 27.3,28.3 C27.3,29.1 27.2,30 27,30.9 C26.8,31.9 26.6,33 26.4,33.9 C26.4,34.1 26.3,34.3 26.3,34.5 C23.3,32.6 20.1,31.2 17.1,30.6 L17.1,30.4 C17.2,29.6 17.3,28.9 17.3,28.1 C17.4,27.4 17.4,26.7 17.4,26 C17.6,25.8 17.6,25.7 17.6,25.6 L17.6,25.6 Z" id="Shape" fill="#8E95B9"></path>
                <path d="M44.4,59.2 C45.8,58.8 47.2,58.6 48.7,58.5 C49.1,58.5 49.5,58.4 49.9,58.4 L50.3,58.4 C50.6,61 51.2,63.3 52.1,65.4 C51.7,65.4 51.4,65.4 51,65.5 L50.5,65.5 C48.7,65.7 47,66 45.5,66.5 C45.4,66.5 45.3,66.6 45.2,66.6 L45.2,65.1 L45.2,64.4 L45.2,64.4 C45.2,63.5 45,62.6 44.9,61.7 C44.9,61.4 44.8,61 44.7,60.7 L44.4,59.2 L44.4,59.2 Z" id="Shape" fill="#8E95B9"></path>
                <path d="M18.5,55.3 C21.3,53.2 25.2,53.8 27.3,56.5 C29.4,59.3 28.8,63.2 26.1,65.3 C23.3,67.4 19.4,66.8 17.3,64.1 C15.2,61.3 15.7,57.3 18.5,55.3 L18.5,55.3 Z" id="Shape" fill="#FFFFFF"></path>
                <path d="M66,47.6 C68.4,45.8 71.9,46.3 73.7,48.7 C75.5,51.1 75,54.5 72.6,56.4 C70.2,58.3 66.7,57.7 64.9,55.3 C63.1,52.9 63.6,49.4 66,47.6 L66,47.6 Z" id="Shape" fill="#FFFFFF"></path>
                <path d="M71.9,29.1 C72,29 72.1,29 72.3,28.9 C72.6,28.8 72.9,28.7 73.2,28.6 C73.7,28.4 74.3,28.2 74.8,28.1 C75.1,28 75.4,28 75.6,27.9 L75.9,27.9 C76.2,27.9 76.6,27.8 76.9,27.8 L77.1,27.8 L78.2,27.8 C78.4,28 78.5,28.2 78.7,28.4 C79.8,29.9 80.1,31.8 79.7,33.5 C79.2,33.6 78.6,33.7 78.1,33.8 C77.8,33.8 77.6,33.9 77.3,33.9 C76.8,34 76.2,34 75.7,34 L74.9,34 L74.1,34 C73.8,34 73.6,34 73.3,33.9 L72.9,33.9 C73.3,32.3 73,30.5 71.9,29.1 L71.9,29.1 Z" id="Shape" fill="#526899"></path>
                <path d="M61.9,28.7 C62.1,28.5 62.3,28.4 62.5,28.2 L62.6,28.1 C62.8,28 63,27.8 63.2,27.7 C66.7,25.4 70.5,24.4 74.1,25.5 C75.7,26 77.1,26.8 78.4,27.9 C78.4,27.9 78.4,27.9 78.3,27.9 C77.9,27.9 77.6,27.8 77.2,27.9 L77,27.9 C76.7,27.9 76.3,27.9 76,28 L75.7,28 C75.4,28 75.1,28.1 74.9,28.2 C74.3,28.3 73.8,28.5 73.3,28.7 L72.4,29 C72.3,29 72.1,29.1 72,29.2 C71.7,29.3 71.3,29.5 71,29.7 C71,29.7 70.9,29.7 70.9,29.8 C70.5,30 70.2,30.2 69.8,30.5 L69.8,30.5 C69.4,30.7 69,31 68.7,31.3 L67.2,32.5 C67,32.6 66.9,32.8 66.7,32.9 C65,34.5 63.5,36.4 62.1,38.6 C62,38.7 62,38.8 61.9,38.9 C60.3,41.6 58.9,44.6 57.9,47.9 C57,51 56.5,54 56.5,56.9 L56.5,59.3 C56.5,59.8 56.5,60.3 56.6,60.7 C56.8,62.6 57.1,64.3 57.6,66 C57.9,67 58.2,67.9 58.6,68.7 C59.4,70.4 60.3,71.8 61.5,73 C60.1,73.1 58.6,72.7 57.2,71.8 C57,71.7 56.8,71.5 56.6,71.4 C56.6,71.4 56.6,71.4 56.5,71.4 C56.3,71.3 56.2,71.1 56,71 C55.8,70.9 55.7,70.7 55.5,70.5 L55.5,70.5 L55.2,70.2 C54.6,69.6 54.1,68.9 53.6,68.2 C53.1,67.4 52.6,66.5 52.1,65.5 C51.2,63.4 50.6,61.1 50.3,58.5 L50.3,58 C49.9,54 50.3,49.6 51.6,45.1 C52.6,41.5 54.2,38.2 56,35.4 C57.7,32.6 59.7,30.3 61.9,28.7 L61.9,28.7 Z" id="Shape" fill="#FFFFFF"></path>
                <path d="M4.8,10.9 L4.9,11 C5.2,11.3 5.6,11.7 6,12 C6.3,12.2 6.5,12.4 6.8,12.7 C7.6,13.3 8.5,13.9 9.5,14.5 C9.9,14.7 10.3,15 10.8,15.2 C12,15.9 13.4,16.5 14.8,17 C15.4,17.2 16,17.5 16.6,17.7 C17.3,17.9 18.1,18.2 18.8,18.4 C19.4,18.6 20,18.7 20.6,18.9 C21.2,19.1 21.8,19.2 22.5,19.4 C23.8,19.7 25.1,19.9 26.4,20.1 C26.5,20.1 26.7,20.1 26.8,20.2 C29.4,20.6 32.2,20.8 35,20.9 C40.2,21 45.2,20.5 49.6,19.6 C49.9,19.5 50.1,19.5 50.4,19.4 C50.8,19.3 51.2,19.2 51.5,19.1 C51.8,19 52.2,18.9 52.5,18.8 C52.9,18.7 53.2,18.6 53.5,18.5 C54.5,18.2 55.5,17.9 56.4,17.5 C57.2,17.2 57.9,16.9 58.6,16.6 C59.2,16.3 59.9,16 60.5,15.7 C60.9,15.5 61.3,15.3 61.7,15 C62.1,14.8 62.5,14.5 62.9,14.2 C63.2,14 63.4,13.9 63.6,13.7 C63.7,13.6 63.8,13.6 63.9,13.5 C63.9,13.5 64,13.5 64,13.4 C64.9,12.7 65.8,12 66.5,11.3 C67.2,10.6 67.8,9.8 68.3,9 L68.3,9 C68.5,9.8 68.6,10.6 68.6,11.5 C68.6,16.5 64.7,21.1 58.4,24.3 C56,25.5 53.3,26.5 50.4,27.3 C46.2,28.4 41.5,29 36.6,29 C33.3,29 30.1,28.7 27.1,28.2 C26.2,28 25.3,27.9 24.5,27.7 L23.3,27.4 C21.7,27 20.2,26.5 18.8,26 C18.3,25.8 17.8,25.7 17.4,25.5 C15.7,24.8 14.1,24 12.7,23.1 L12.7,23.1 C10.3,21.6 8.3,19.9 6.9,18.1 C6.4,17.4 5.9,16.7 5.4,15.6 C4.9,14.2 4.6,12.4 4.8,10.9 L4.8,10.9 Z" id="Shape" fill="#FFFFFF"></path>
                <path d="M60.2,4 C62.8,3.2 65.7,4 67.4,6.2 L67.4,6.2 C68,7 68.4,7.8 68.5,8.8 C68.5,8.9 68.6,9.1 68.6,9.2 C68.1,10 67.5,10.8 66.8,11.5 C66.1,12.2 65.3,12.9 64.3,13.6 L64.2,13.7 C64,13.3 63.8,12.9 63.5,12.5 C62.1,10.6 59.8,9.7 57.4,9.9 C57.9,7.7 58.9,5.8 60.2,4 L60.2,4 Z" id="Shape" fill="#526899"></path>
                <path d="M7.3,5.9 C7.5,5.7 7.7,5.6 7.9,5.5 C8.4,5.7 8.8,6 9.3,6.3 C9.5,6.4 9.6,6.5 9.8,6.6 C10.1,6.9 10.4,7.1 10.7,7.4 L12.2,8.9 C12.7,9.5 13.2,10.2 13.7,10.9 C13.5,11 13.3,11.1 13.2,11.3 C12,12.3 11.2,13.6 10.8,15.1 C10.4,14.9 9.9,14.6 9.5,14.4 C8.5,13.8 7.6,13.3 6.8,12.6 C6.5,12.4 6.2,12.2 6,12 C5.6,11.7 5.2,11.4 4.9,11 L4.8,10.9 C4.8,10.2 5,9.4 5.2,8.8 C5.2,8.8 5.2,8.8 5.2,8.7 C5.7,7.6 6.4,6.7 7.3,5.9 L7.3,5.9 Z" id="Shape" fill="#526899"></path>
                <path d="M33.7,1.5 C37,-1 41.8,-0.3 44.3,3 C46.8,6.3 46.1,11.1 42.8,13.6 C39.5,16.1 34.7,15.4 32.2,12.1 C29.7,8.8 30.3,4 33.7,1.5 L33.7,1.5 Z" id="Shape" fill="#FFFFFF"></path>
                <path d="M38.2,61.9 C38.8,63.3 39.3,64.6 39.7,66 C40,67 40.3,68 40.5,69 C38.6,70.3 37,71.8 35.8,73.6 C34.8,75.2 34.1,77 34,79 C33.6,78.7 33.2,78.3 32.9,77.8 L32.9,77.8 C32.5,77 32.2,76.2 32,75.4 L32,75.2 C31.8,74.7 31.7,74.1 31.7,73.5 C31.6,72.3 31.7,71.1 32,70 C32.8,66.8 35,64 38.2,61.9 L38.2,61.9 Z" id="Shape" fill="#8E95B9"></path>
                <path d="M56.4,59.2 C57.8,59.6 59.2,60.1 60.5,60.8 L60.5,60.8 L60.5,60.8 L60.5,60.8 C60.7,60.9 60.8,61 61,61.1 L61,61.1 C61.2,61.2 61.5,61.4 61.7,61.5 C61.9,61.6 62.1,61.7 62.2,61.8 C62.4,61.9 62.6,62.1 62.8,62.2 C63.1,62.4 63.4,62.7 63.7,62.9 L63.7,62.9 L63.7,62.9 C65.5,64.9 66.1,67.4 65.5,69.4 C64.1,68.3 62.5,67.4 60.7,66.7 L60.7,66.7 C59.7,66.3 58.6,66 57.4,65.7 C56.9,64.1 56.6,62.3 56.4,60.4 C56.5,60.1 56.4,59.7 56.4,59.2 L56.4,59.2 Z" id="Shape" fill="#8E95B9"></path>
                <path d="M67.1,32.3 C67.5,32.5 67.8,32.6 68.2,32.8 C68.3,32.9 68.4,32.9 68.6,32.9 C68.7,32.9 68.7,32.9 68.8,33 C69.2,33.1 69.6,33.3 70,33.4 C70.5,33.5 70.9,33.7 71.4,33.7 C71.9,33.8 72.5,33.9 73,34 L73.4,34 C73.7,34 73.9,34.1 74.2,34.1 L75,34.1 L75.8,34.1 C76.3,34.1 76.9,34.1 77.4,34 C77.7,34 77.9,33.9 78.2,33.9 C78.8,33.8 79.3,33.7 79.8,33.6 C79.4,35.1 78.5,36.6 77.1,37.7 C76.7,38 76.3,38.2 75.9,38.4 C75.8,38.5 75.7,38.5 75.5,38.6 C75.1,38.7 74.8,38.9 74.4,39 L74.3,39 C71.6,39.8 68.8,40.1 66.1,39.7 C65.1,39.6 64,39.3 63,39 C62.6,38.9 62.2,38.8 61.8,38.6 C61.9,38.5 61.9,38.4 62,38.3 C63.4,36.1 64.9,34.2 66.6,32.6 C66.8,32.6 66.9,32.4 67.1,32.3 L67.1,32.3 Z" id="Shape" fill="#8E95B9"></path>
                <path d="M57.7,5.2 L57.7,5.2 C58,5 58.2,4.9 58.4,4.8 C59,4.5 59.6,4.2 60.2,4 C58.9,5.8 58,7.7 57.4,9.8 L57.4,9.8 C56.9,11.5 56.6,13.3 56.6,15 C56.6,15.8 56.6,16.7 56.7,17.5 C55.8,17.8 54.8,18.2 53.8,18.5 C53.5,18.6 53.1,18.7 52.8,18.8 C52.5,18.9 52.2,19 51.8,19.1 C51.4,19.2 51,19.3 50.7,19.4 C50.4,19.5 50.2,19.5 49.9,19.6 C50,18.5 50.2,17.3 50.5,16.2 C50.7,15.5 50.9,14.9 51.2,14.2 C52.4,11 54.5,8.1 57.4,5.7 C57.4,5.5 57.5,5.4 57.7,5.2 L57.7,5.2 Z" id="Shape" fill="#8E95B9"></path>
                <path d="M4.5,32.7 C6.6,31.1 9,30.3 11.7,30.1 C13.5,30 15.4,30.1 17.3,30.6 C20.3,31.3 23.4,32.6 26.5,34.5 C26.7,34.6 26.9,34.8 27.1,34.9 C30.8,37.3 34.3,40.6 37.3,44.7 C40.8,49.4 43.2,54.5 44.4,59.3 L44.7,60.8 C44.8,61.1 44.8,61.5 44.9,61.8 C45.1,62.7 45.2,63.6 45.2,64.5 L45.2,64.5 L45.2,65.2 L45.2,66.7 C45.2,67.6 45.1,68.6 45,69.5 L45,69.5 C44.7,71.7 44.1,73.7 43.1,75.4 L43.1,75.4 C42.5,76.5 41.7,77.5 40.8,78.4 C41,76.9 41.1,75.2 41,73.5 C40.9,72 40.7,70.5 40.4,69 C40.2,68 39.9,67 39.6,66 C39.2,64.6 38.7,63.3 38.1,61.9 C37.8,61.2 37.4,60.4 37,59.7 C35.9,57.5 34.5,55.3 32.9,53.2 C30.5,50.1 27.9,47.4 25.1,45.2 C24.2,44.5 23.3,43.8 22.3,43.2 C21.3,42.6 20.3,42 19.3,41.5 L19.3,41.5 C17.6,40.7 15.9,40 14.3,39.5 C14.1,39.4 13.9,39.4 13.7,39.3 C13.5,39.2 13.3,39.2 13.1,39.1 C12.6,39 12,38.9 11.5,38.8 C10.9,38.7 10.2,38.6 9.6,38.6 L9.2,38.6 L8,38.6 C7,38.6 6.1,38.7 5.2,38.9 C4.9,39 4.6,39 4.3,39.1 C4.1,39.1 4,39.2 3.8,39.2 L2.9,39.5 C2.8,39.6 2.6,39.6 2.5,39.7 C2.4,39.8 2.2,39.8 2.1,39.9 C1.4,40.2 0.7,40.7 0.1,41.1 C-2.85882429e-15,41.2 -0.1,41.2 -0.2,41.3 L-0.2,40.9 L-0.2,40.9 L-0.2,40.5 L-0.2,40.5 L-0.2,40 C-0.2,39.5 -0.1,39.1 -2.83106871e-15,38.7 C-2.83106871e-15,38.6 -2.83106871e-15,38.5 0.1,38.4 L0.4,37.5 C0.5,37.3 0.5,37.1 0.6,36.9 C0.6,36.9 0.6,36.8 0.7,36.8 L1,36.2 C1,36.2 1,36.1 1.1,36.1 L1.1,36.1 L1.1,36.1 L1.1,36.1 C1.1,36.1 1.1,36 1.2,36 L1.2,36 L1.2,36 L1.2,36 L1.2,36 L1.3,35.9 L1.3,35.9 L1.3,35.9 C1.8,35.4 2,35.2 2.1,35 C2.3,34.7 2.6,34.4 2.9,34.1 C2.9,34 3,34 3,34 C3.5,33.5 3.9,33.1 4.5,32.7 L4.5,32.7 Z" id="Shape" fill="#FFFFFF"></path>
                <path d="M0.3,41.2 C0.9,40.7 1.6,40.3 2.3,40 C2.4,39.9 2.6,39.9 2.7,39.8 C2.8,39.7 3,39.7 3.1,39.6 C3.4,39.5 3.7,39.4 4,39.3 C4.2,39.3 4.3,39.2 4.5,39.2 C4.8,39.1 5.1,39 5.4,39 C6.3,38.8 7.3,38.7 8.2,38.7 C8.4,40.3 8.9,42 9.9,43.4 C10.3,44 10.7,44.5 11.2,45 C9.4,47.2 7.4,49 5.1,50.2 C3.8,49.4 2.6,48.3 1.8,46.9 C1.6,46.6 1.5,46.4 1.3,46.1 C1.2,45.9 1.1,45.7 1,45.4 C0.9,45.2 0.8,45.1 0.8,44.9 C0.7,44.6 0.6,44.3 0.5,43.9 C0.4,43.7 0.4,43.5 0.3,43.3 C0.2,42.7 0.1,42.1 0.1,41.4 C0.1,41.4 0.2,41.3 0.3,41.2 L0.3,41.2 Z" id="Shape" fill="#526899"></path>
                <path d="M14.6,39.5 C16.3,40 17.9,40.6 19.6,41.5 L19.6,41.5 C20.6,42 21.6,42.6 22.6,43.2 C21.3,45.1 19.9,46.8 18.3,48.2 L18.3,48.2 C17.4,49 16.4,49.6 15.5,50.2 C15.4,50.3 15.3,50.3 15.2,50.4 L15.2,50.4 C14.9,50.6 14.6,50.7 14.3,50.8 C14,51 13.6,51.1 13.3,51.2 C13.2,51.3 13,51.3 12.8,51.3 C12.6,51.3 12.4,51.4 12.3,51.4 C12.2,51.4 12.1,51.4 12,51.5 C11.8,51.5 11.5,51.6 11.3,51.6 C11.3,51.6 11.3,51.6 11.2,51.6 L10.4,51.6 C10.1,51.6 9.8,51.6 9.6,51.5 C9.1,51.5 8.7,51.4 8.2,51.2 C8,51.2 7.8,51.1 7.6,51 C7.2,51.1 7.1,51 6.9,51 C6.8,50.9 6.6,50.9 6.5,50.8 C6.3,50.7 6.1,50.7 6,50.6 C5.7,50.5 5.5,50.3 5.2,50.2 C7.4,49 9.5,47.2 11.3,45 C12.5,43.3 13.6,41.5 14.6,39.5 L14.6,39.5 Z" id="Shape" fill="#8E95B9"></path>
            </g>
        </g>
    </g>
</svg>