<?xml version="1.0" encoding="UTF-8" standalone="no"?>
<svg width="171px" height="74px" viewBox="0 0 171 74" version="1.1" xmlns="http://www.w3.org/2000/svg" xmlns:xlink="http://www.w3.org/1999/xlink" xmlns:sketch="http://www.bohemiancoding.com/sketch/ns">
    <!-- Generator: Sketch 3.0.3 (7892) - http://www.bohemiancoding.com/sketch -->
    <title>Slice 1</title>
    <desc>Created with Sketch.</desc>
    <defs></defs>
    <g id="Page-1" stroke="none" stroke-width="1" fill="none" fill-rule="evenodd" sketch:type="MSPage">
        <g id="fhca_logo" sketch:type="MSLayerGroup" transform="translate(-62.000000, 0.000000)" fill="#FFFFFF">
            <g id="FHCA_Logo" transform="translate(62.000000, 0.000000)" sketch:type="MSShapeGroup">
                <path d="M159.808901,74.3566265 C159.719372,74.1783133 159.540314,74 159.450785,73.8216867 C159.271728,73.5542169 159.09267,73.1975904 158.913613,72.9301205 C158.734555,72.573494 159.003141,72.1277108 159.450785,71.860241 C159.719372,71.6819277 160.256545,71.6819277 160.435602,72.0385542 C160.704188,72.3060241 161.062304,72.3951807 161.420419,72.4843373 C161.599476,72.573494 161.868063,72.3951807 161.957592,72.2168675 C162.04712,72.0385542 161.957592,71.9493976 161.868063,71.860241 C161.509948,71.6819277 161.241361,71.5036145 160.883246,71.4144578 C160.793717,71.3253012 160.61466,71.3253012 160.435602,71.3253012 C159.898429,71.3253012 159.450785,71.0578313 159.09267,70.7012048 C159.003141,70.7012048 159.003141,70.6120482 159.003141,70.5228916 C158.913613,70.3445783 158.913613,70.1662651 158.734555,69.9879518 C158.555497,69.7204819 158.37644,69.5421687 158.286911,69.3638554 C158.197382,69.2746988 158.197382,69.1855422 158.197382,69.0963855 C158.197382,68.8289157 158.018325,68.739759 157.928796,68.5614458 C157.749738,68.3831325 157.660209,68.2939759 157.570681,68.1156627 C157.391623,67.9373494 157.212565,67.7590361 157.123037,67.6698795 C156.85445,67.4024096 156.675393,67.1349398 156.585864,66.7783133 C156.496335,66.5108434 156.317277,66.3325301 156.13822,66.1542169 C155.869634,65.886747 155.601047,65.7975904 155.242932,65.5301205 C154.974346,65.3518072 154.795288,65.2626506 154.526702,65.2626506 C154.168586,65.2626506 153.720942,65.2626506 153.362827,65.173494 C153.094241,65.0843373 152.736126,64.9951807 152.557068,64.7277108 C152.37801,64.5493976 152.198953,64.460241 152.019895,64.3710843 C151.930366,64.2819277 151.751309,64.1927711 151.66178,64.1036145 C151.482723,63.9253012 151.393194,63.746988 151.214136,63.5686747 L151.124607,63.4795181 C150.94555,63.0337349 150.856021,62.5879518 150.676963,62.053012 L150.676963,61.7855422 C150.676963,61.6072289 150.587435,61.5180723 150.497906,61.339759 C150.497906,61.2506024 150.408377,61.1614458 150.408377,61.0722892 C150.229319,60.626506 150.139791,60.0915663 150.050262,59.5566265 C150.050262,59.4674699 149.960733,59.3783133 149.960733,59.2891566 C149.960733,59.0216867 149.871204,58.8433735 149.692147,58.6650602 C149.602618,58.5759036 149.513089,58.3975904 149.42356,58.3084337 C149.244503,58.1301205 149.154974,58.0409639 148.975916,57.8626506 C148.796859,57.6843373 148.617801,57.4168675 148.349215,57.2385542 C148.259686,57.1493976 148.259686,57.060241 148.170157,57.060241 C147.722513,56.8819277 147.543455,56.4361446 147.274869,56.0795181 C147.006283,55.6337349 146.916754,55.1879518 146.916754,54.7421687 L146.916754,53.226506 C146.916754,52.9590361 146.827225,52.6024096 146.737696,52.3349398 C146.737696,52.1566265 146.648168,52.0674699 146.737696,51.8891566 C146.827225,51.7108434 146.737696,51.5325301 146.558639,51.5325301 L145.931937,51.5325301 C145.75288,51.5325301 145.663351,51.7108434 145.842408,51.8 C146.290052,52.1566265 146.200524,52.6915663 146.200524,53.226506 C146.200524,53.4939759 145.663351,53.7614458 145.394764,53.6722892 C145.305236,53.6722892 145.126178,53.5831325 145.036649,53.4939759 C144.678534,53.1373494 144.320419,52.7807229 144.051832,52.4240964 C143.693717,51.9783133 143.246073,51.5325301 142.977487,51.086747 C142.619372,50.5518072 142.261257,50.0168675 141.903141,49.4819277 C141.813613,49.3036145 141.724084,49.0361446 141.634555,48.8578313 C141.455497,48.4120482 141.27644,47.9662651 141.097382,47.5204819 C141.097382,47.4313253 141.007853,47.4313253 141.007853,47.3421687 C140.828796,47.0746988 140.649738,46.7180723 140.470681,46.4506024 C140.291623,46.0939759 140.112565,45.6481928 139.75445,45.3807229 C139.396335,45.113253 139.396335,44.7566265 139.485864,44.4 C139.485864,44.3108434 139.664921,44.1325301 139.75445,44.0433735 C139.843979,43.9542169 139.933508,43.8650602 139.933508,43.7759036 C139.933508,43.4192771 140.023037,43.0626506 140.291623,42.7951807 C140.470681,42.5277108 140.739267,42.1710843 140.918325,41.9036145 C141.007853,41.7253012 141.186911,41.6361446 141.186911,41.4578313 C141.27644,41.1012048 141.545026,40.8337349 141.634555,40.4771084 C141.813613,40.2096386 141.903141,39.853012 141.813613,39.4963855 C141.813613,39.4072289 141.724084,39.3180723 141.634555,39.2289157 C141.545026,39.3180723 141.545026,39.4072289 141.455497,39.4963855 L141.455497,39.853012 C141.455497,40.0313253 141.365969,40.2096386 141.186911,40.2987952 C141.097382,40.3879518 141.007853,40.3879518 140.918325,40.2987952 C140.649738,40.0313253 140.381152,39.7638554 140.291623,39.3180723 C140.291623,39.139759 140.112565,38.9614458 139.933508,38.8722892 C139.75445,38.7831325 139.575393,38.6939759 139.485864,38.5156627 C139.396335,38.426506 139.217277,38.426506 139.127749,38.5156627 C139.03822,38.6048193 139.03822,38.7831325 139.217277,38.8722892 C139.485864,39.139759 139.75445,39.4072289 139.933508,39.6746988 C140.112565,39.853012 140.023037,40.0313253 140.023037,40.2096386 C139.933508,40.3879518 139.933508,40.5662651 139.843979,40.7445783 L139.843979,41.3686747 C139.843979,41.4578313 139.75445,41.6361446 139.75445,41.6361446 C139.485864,41.8144578 139.217277,41.9927711 138.948691,41.8144578 C138.859162,41.7253012 138.680105,41.6361446 138.590576,41.546988 C138.32199,41.1903614 138.142932,40.7445783 137.695288,40.4771084 C137.158115,40.2096386 136.979058,39.7638554 136.979058,39.139759 C136.979058,38.6048193 136.979058,38.1590361 137.068586,37.6240964 C137.068586,37.5349398 137.158115,37.4457831 137.158115,37.3566265 C137.247644,37.0891566 137.247644,36.9108434 137.158115,36.6433735 C137.068586,36.5542169 137.068586,36.4650602 137.068586,36.3759036 C137.158115,35.9301205 137.247644,35.573494 137.337173,35.1277108 C137.426702,34.6819277 137.605759,34.2361446 137.695288,33.8795181 L137.695288,33.7903614 C137.784817,33.3445783 137.874346,32.8987952 137.963874,32.453012 C137.963874,32.2746988 138.053403,32.1855422 138.053403,32.0072289 C138.053403,31.9180723 138.142932,31.8289157 138.142932,31.6506024 C138.142932,31.1156627 138.32199,30.4915663 138.142932,29.9566265 C138.053403,29.7783133 138.142932,29.5108434 138.142932,29.3325301 C138.232461,29.0650602 138.232461,28.7975904 137.963874,28.5301205 C137.874346,28.4409639 137.874346,28.2626506 137.874346,28.0843373 L137.874346,27.7277108 C137.695288,27.3710843 137.695288,27.1036145 137.874346,26.746988 C138.053403,26.3903614 137.784817,26.1228916 137.605759,25.9445783 C137.51623,25.7662651 137.337173,25.6771084 137.247644,25.4987952 C137.068586,25.3204819 136.979058,25.053012 136.8,24.7855422 C136.620942,24.4289157 136.441885,23.9831325 136.173298,23.626506 C136.08377,23.5373494 135.904712,23.4481928 135.725654,23.4481928 C135.27801,23.3590361 134.919895,23.3590361 134.472251,23.2698795 C134.114136,23.1807229 133.756021,23.0024096 133.397906,22.913253 C133.308377,22.8240964 133.129319,22.7349398 133.039791,22.6457831 C132.771204,22.4674699 132.502618,22.2 132.234031,21.9325301 C132.144503,21.8433735 132.054974,21.7542169 131.875916,21.5759036 C131.60733,21.2192771 131.249215,20.773494 130.980628,20.4168675 C130.891099,20.3277108 130.712042,20.2385542 130.622513,20.1493976 C130.443455,19.9710843 130.174869,19.8819277 129.995812,19.7036145 C129.727225,19.4361446 129.548168,19.1686747 129.279581,18.9903614 C128.831937,18.7228916 128.65288,18.2771084 128.563351,17.8313253 C128.473822,17.4746988 128.384293,17.2072289 128.205236,16.939759 C127.936649,16.5831325 127.578534,16.226506 127.13089,16.0481928 C126.862304,15.9590361 126.593717,15.6915663 126.325131,15.513253 C126.235602,15.4240964 126.235602,15.3349398 126.235602,15.2457831 C126.235602,15.0674699 126.146073,14.8891566 126.146073,14.8 L126.146073,14.7108434 C125.967016,13.9975904 125.340314,13.8192771 124.803141,13.4626506 C124.445026,13.2843373 124.086911,13.2843373 123.639267,13.1060241 C123.370681,13.0168675 123.191623,12.8385542 123.012565,12.660241 C122.743979,12.4819277 122.475393,12.3036145 122.296335,12.1253012 C122.206806,12.0361446 122.117277,12.0361446 122.027749,11.946988 C121.759162,11.7686747 121.490576,11.6795181 121.22199,11.5903614 L120.774346,11.5903614 C120.237173,11.7686747 119.789529,11.8578313 119.252356,11.7686747 C119.073298,11.7686747 118.894241,11.7686747 118.804712,11.8578313 C118.625654,11.946988 118.446597,12.1253012 118.267539,12.3036145 C117.819895,12.5710843 117.730366,13.0168675 117.819895,13.4626506 C117.909424,13.9975904 117.730366,14.1759036 117.103665,14.1759036 L116.74555,14.1759036 C116.297906,14.086747 115.939791,14.2650602 115.581675,14.5325301 C115.313089,14.7108434 115.044503,14.8 114.865445,14.9783133 C114.50733,15.2457831 114.149215,15.513253 113.791099,15.7807229 C113.432984,16.0481928 113.074869,16.3156627 112.627225,16.4939759 C112.358639,16.6722892 112.090052,16.5831325 111.910995,16.4048193 C111.731937,16.3156627 111.642408,16.3156627 111.463351,16.4048193 C111.015707,16.5831325 110.568063,16.7614458 110.120419,16.939759 C109.941361,17.0289157 109.762304,16.939759 109.583246,16.939759 C109.135602,16.939759 108.777487,17.1180723 108.419372,17.3855422 C108.240314,17.5638554 108.061257,17.5638554 107.79267,17.5638554 C107.434555,17.5638554 107.165969,17.653012 106.897382,17.7421687 L106.628796,17.7421687 C106.449738,17.4746988 106.270681,17.2963855 106.091623,17.0289157 C106.002094,16.939759 106.091623,16.7614458 106.181152,16.6722892 C106.270681,16.5831325 106.360209,16.4048193 106.449738,16.4048193 C106.628796,16.3156627 106.628796,16.1373494 106.539267,15.9590361 C106.360209,15.6024096 106.270681,15.2457831 106.091623,14.8891566 C106.091623,14.8 106.002094,14.7108434 105.912565,14.7108434 C105.733508,14.4433735 105.464921,14.2650602 105.285864,13.9975904 C104.927749,13.5518072 104.569634,13.1951807 104.211518,12.7493976 C104.032461,12.5710843 103.942932,12.4819277 103.942932,12.2144578 C103.942932,11.946988 103.674346,11.6795181 103.405759,11.5903614 C103.137173,11.5012048 102.868586,11.4120482 102.689529,11.3228916 C102.420942,11.2337349 102.331414,11.1445783 102.331414,10.8771084 C102.331414,10.6096386 102.241885,10.4313253 102.062827,10.3421687 C101.794241,10.253012 101.525654,10.0746988 101.346597,10.3421687 C100.988482,10.6987952 100.630366,10.6096386 100.182723,10.4313253 C99.3769634,10.1638554 98.660733,9.62891566 97.9445026,9.27228916 C97.765445,9.18313253 97.4968586,9.18313253 97.317801,9.0939759 C97.0492147,9.00481928 96.6910995,9.00481928 96.4225131,9.00481928 L96.0643979,9.00481928 C95.7958115,9.00481928 95.4376963,9.00481928 95.1691099,8.91566265 C94.8109948,8.82650602 94.6319372,8.55903614 94.721466,8.20240964 C94.8109948,8.02409639 94.721466,7.93493976 94.5424084,7.93493976 C94.273822,7.93493976 94.0947644,7.93493976 93.9157068,8.11325301 C93.826178,8.20240964 93.6471204,8.20240964 93.4680628,8.29156627 C92.8413613,8.46987952 92.1251309,8.82650602 91.4089005,8.7373494 C91.2298429,8.7373494 91.0507853,8.64819277 90.8717277,8.64819277 C90.4240838,8.64819277 89.9764398,8.7373494 89.6183246,8.82650602 C89.439267,8.91566265 89.2602094,8.82650602 89.0811518,8.91566265 L88.6335079,8.91566265 C88.1858639,9.00481928 87.7382199,9.18313253 87.3801047,9.27228916 C87.1115183,9.36144578 86.7534031,9.36144578 86.4848168,9.36144578 C86.395288,9.36144578 86.2162304,9.27228916 86.2162304,9.18313253 L86.2162304,8.82650602 C86.3057592,8.64819277 86.4848168,8.55903614 86.6638743,8.38072289 C86.6638743,8.38072289 86.7534031,8.29156627 86.7534031,8.20240964 C86.7534031,8.11325301 86.6638743,8.11325301 86.6638743,8.11325301 C86.5743455,8.11325301 86.395288,8.02409639 86.395288,8.11325301 C86.0371728,8.29156627 85.7685864,8.46987952 85.5895288,8.82650602 C85.5,9.0939759 85.3209424,9.27228916 85.2314136,9.53975904 C85.1418848,9.71807229 84.9628272,9.80722892 84.6942408,9.89638554 C84.2465969,9.98554217 83.8884817,10.1638554 83.5303665,10.3421687 C83.0827225,10.4313253 82.9931937,10.4313253 82.8141361,9.98554217 C82.7246073,9.80722892 82.6350785,9.62891566 82.6350785,9.53975904 C82.4560209,9.18313253 82.5455497,8.91566265 82.8141361,8.64819277 L82.9036649,8.55903614 C83.1722513,8.29156627 83.1722513,8.20240964 82.9931937,7.84578313 C82.8141361,7.66746988 82.8141361,7.48915663 82.9036649,7.22168675 C82.9931937,7.04337349 83.0827225,6.77590361 83.2617801,6.59759036 C83.3513089,6.41927711 83.3513089,6.33012048 83.2617801,6.15180723 C83.1722513,6.0626506 83.0827225,5.88433735 83.0827225,5.79518072 C83.0827225,5.61686747 82.9931937,5.52771084 82.9036649,5.34939759 C82.6350785,5.17108434 82.3664921,4.99277108 82.2769634,4.63614458 C82.2769634,4.54698795 82.1874346,4.45783133 82.0979058,4.45783133 C81.6502618,4.27951807 81.4712042,3.83373494 81.113089,3.47710843 C80.9340314,3.29879518 80.9340314,3.12048193 80.9340314,2.85301205 L80.9340314,1.60481928 C80.9340314,1.51566265 81.0235602,1.42650602 81.0235602,1.3373494 C81.113089,1.24819277 81.113089,1.15903614 81.2026178,1.06987952 C81.0235602,0.980722892 81.113089,0.891566265 81.3816754,0.891566265 C82.8141361,0.891566265 84.1570681,0.891566265 85.5895288,0.802409639 C86.395288,0.713253012 87.2010471,0.802409639 88.0068063,0.713253012 C88.2753927,0.713253012 88.4544503,0.624096386 88.7230366,0.713253012 L88.991623,0.713253012 C89.1706806,0.713253012 89.439267,0.624096386 89.6183246,0.624096386 L92.0356021,0.624096386 C92.8413613,0.624096386 93.6471204,0.624096386 94.4528796,0.534939759 C95.7062827,0.26746988 97.0492147,0.534939759 98.3026178,0.445783133 C98.3921466,0.445783133 98.5712042,0.356626506 98.660733,0.356626506 L110.299476,0.356626506 C110.389005,0.445783133 110.389005,0.534939759 110.478534,0.713253012 C110.657592,0.980722892 110.926178,1.24819277 111.015707,1.6939759 C111.015707,2.05060241 111.105236,2.49638554 111.284293,2.85301205 C111.463351,3.29879518 111.731937,3.65542169 112.179581,3.65542169 C112.806283,3.65542169 113.522513,3.74457831 114.149215,3.74457831 L130.532984,3.74457831 L130.801571,3.74457831 C130.980628,3.74457831 131.249215,3.83373494 131.428272,3.83373494 L141.097382,3.83373494 C141.455497,3.83373494 141.634555,3.92289157 141.724084,4.27951807 C141.813613,4.45783133 141.813613,4.63614458 141.903141,4.81445783 C141.99267,5.17108434 142.171728,5.52771084 142.261257,5.97349398 C142.350785,6.33012048 142.619372,6.59759036 143.067016,6.50843373 C143.246073,6.50843373 143.335602,6.41927711 143.425131,6.24096386 C143.783246,5.61686747 143.693717,4.90361446 143.604188,4.19036145 C143.51466,3.92289157 143.425131,3.65542169 143.425131,3.38795181 C143.335602,3.0313253 143.335602,2.76385542 143.246073,2.40722892 C143.246073,2.13975904 143.156545,1.87228916 143.156545,1.60481928 C143.156545,1.06987952 143.425131,0.624096386 143.872775,0.445783133 L143.962304,0.445783133 C144.051832,0.356626506 144.141361,0.26746988 144.23089,0.178313253 L145.663351,0.178313253 C145.75288,0.26746988 145.75288,0.356626506 145.842408,0.445783133 C146.110995,0.624096386 146.379581,0.713253012 146.648168,0.802409639 C147.095812,0.891566265 147.543455,1.06987952 147.991099,1.15903614 L148.170157,1.15903614 C148.438743,1.15903614 148.70733,1.24819277 148.975916,1.42650602 C149.154974,1.51566265 149.334031,1.60481928 149.513089,1.6939759 C149.692147,1.78313253 149.692147,1.87228916 149.692147,2.05060241 C149.602618,2.49638554 149.692147,2.94216867 149.960733,3.29879518 C150.050262,3.56626506 150.139791,3.83373494 150.139791,4.10120482 C150.139791,4.45783133 150.139791,4.81445783 150.229319,5.17108434 C150.318848,5.52771084 150.318848,5.52771084 150.676963,5.61686747 C151.035079,5.7060241 151.214136,5.79518072 151.303665,6.15180723 C151.393194,6.41927711 151.393194,6.68674699 151.482723,6.95421687 L151.482723,7.04337349 C151.482723,7.4 151.572251,7.75662651 151.66178,8.02409639 C151.751309,8.38072289 151.930366,8.82650602 152.019895,9.18313253 C152.109424,9.36144578 152.109424,9.53975904 152.109424,9.71807229 C152.109424,9.89638554 152.198953,10.0746988 152.288482,10.1638554 C152.467539,10.6096386 152.557068,11.1445783 152.736126,11.5903614 C152.825654,11.946988 152.915183,12.2144578 153.094241,12.4819277 C153.273298,12.8385542 153.362827,13.2843373 153.541885,13.6409639 C153.720942,13.9975904 153.989529,14.3542169 154.168586,14.7108434 C154.437173,15.3349398 154.705759,15.9590361 155.063874,16.5831325 C155.332461,17.1180723 155.511518,17.653012 155.780105,18.2771084 C155.959162,18.6337349 156.13822,18.9903614 156.406806,19.346988 C156.496335,19.4361446 156.496335,19.6144578 156.585864,19.7036145 C157.033508,20.2385542 157.033508,20.8626506 157.302094,21.3975904 C157.391623,21.6650602 157.481152,21.8433735 157.749738,22.0216867 C157.839267,22.1108434 157.928796,22.2 158.018325,22.3783133 C158.107853,22.5566265 158.197382,22.7349398 158.286911,22.913253 C158.465969,23.2698795 158.734555,23.5373494 158.913613,23.9831325 C159.003141,24.2506024 159.182199,24.5180723 159.361257,24.7855422 C159.450785,24.8746988 159.540314,24.9638554 159.629843,24.9638554 C159.987958,25.053012 160.167016,25.2313253 160.435602,25.4987952 C160.704188,25.7662651 160.704188,26.0337349 160.61466,26.3012048 C160.525131,26.3903614 160.61466,26.5686747 160.61466,26.6578313 C160.61466,26.8361446 160.704188,27.0144578 160.704188,27.2819277 C160.704188,27.9060241 160.704188,27.9951807 161.420419,28.0843373 C161.509948,28.0843373 161.599476,28.173494 161.689005,28.173494 C162.04712,28.5301205 162.226178,28.9759036 162.226178,29.5108434 C162.226178,29.9566265 162.136649,30.4915663 162.136649,30.9373494 C162.136649,31.3831325 162.136649,31.8289157 162.226178,32.1855422 C162.405236,32.6313253 162.494764,33.0771084 162.673822,33.4337349 C162.85288,33.7903614 163.031937,34.2361446 163.121466,34.5927711 C163.121466,34.860241 163.300524,35.0385542 163.390052,35.2168675 C163.479581,35.3951807 163.658639,35.573494 163.658639,35.8409639 C163.837696,36.3759036 164.106283,36.9108434 164.374869,37.3566265 C164.553927,37.6240964 164.732984,37.8915663 164.732984,38.2481928 C164.732984,38.3373494 164.732984,38.426506 164.822513,38.426506 C165.180628,38.8722892 165.449215,39.3180723 165.628272,39.853012 C165.628272,39.853012 165.628272,39.9421687 165.717801,39.9421687 C165.986387,40.3879518 166.344503,40.8337349 166.434031,41.4578313 C166.434031,41.546988 166.434031,41.6361446 166.52356,41.6361446 C166.881675,41.9927711 166.881675,42.5277108 167.150262,42.8843373 C167.418848,43.2409639 167.508377,43.686747 167.687435,44.1325301 C167.687435,44.2216867 167.687435,44.2216867 167.776963,44.3108434 C167.866492,44.4891566 167.956021,44.5783133 168.04555,44.7566265 C168.224607,45.113253 168.582723,45.3807229 168.672251,45.7373494 C168.76178,46.0939759 168.940838,46.3614458 169.209424,46.539759 C169.388482,46.7180723 169.47801,46.8963855 169.567539,47.0746988 C169.657068,47.253012 169.836126,47.4313253 169.925654,47.6096386 C170.015183,47.8771084 170.194241,48.0554217 170.28377,48.3228916 C170.373298,48.5012048 170.373298,48.7686747 170.462827,48.946988 C170.552356,49.2144578 170.731414,49.4819277 170.641885,49.8385542 L170.641885,50.0168675 C170.731414,50.5518072 170.820942,50.9975904 170.910471,51.5325301 C170.910471,51.7108434 171,51.8 171,51.9783133 C171.089529,52.2457831 171.179058,52.6024096 171.268586,52.8698795 L171.268586,52.8698795 L171.268586,63.2120482 C171.179058,63.3012048 171.089529,63.3903614 171,63.5686747 C170.910471,63.746988 170.910471,63.9253012 170.820942,64.1036145 C170.552356,64.6385542 170.28377,65.173494 170.104712,65.7084337 C169.925654,66.0650602 169.836126,66.4216867 169.746597,66.7783133 C169.567539,67.2240964 169.47801,67.7590361 169.298953,68.2048193 C169.209424,68.4722892 169.209424,68.6506024 169.298953,68.9180723 C169.47801,69.2746988 169.388482,69.6313253 169.298953,69.8987952 C169.298953,69.9879518 169.209424,70.1662651 169.209424,70.2554217 C169.209424,70.3445783 169.119895,70.4337349 169.119895,70.5228916 C169.119895,70.6120482 169.030366,70.7012048 169.030366,70.7903614 C168.851309,71.2361446 168.582723,71.6819277 168.135079,72.0385542 C168.04555,72.1277108 167.956021,72.2168675 167.776963,72.2168675 C167.418848,72.3060241 167.150262,72.3951807 166.792147,72.573494 C166.613089,72.6626506 166.434031,72.7518072 166.344503,72.8409639 C166.075916,73.0192771 165.80733,73.1975904 165.538743,73.286747 C165.180628,73.4650602 164.822513,73.5542169 164.553927,73.6433735 C164.464398,73.6433735 164.28534,73.5542169 164.106283,73.5542169 C163.748168,73.3759036 163.479581,73.3759036 163.210995,73.6433735 C163.031937,73.8216867 162.942408,74 162.763351,74.0891566 L161.868063,74.0891566 C161.689005,73.9108434 161.599476,73.9108434 161.420419,74.0891566 C160.793717,74.3566265 160.346073,74.3566265 159.808901,74.3566265 L159.808901,74.3566265 Z" id="Shape"></path>
                <path d="M121.401047,14.9783133 L113.970157,21.7542169 L121.401047,17.2072289 L128.742408,21.7542169 L121.401047,14.9783133 Z" id="Shape"></path>
                <path d="M125.698429,21.9325301 L123.102094,21.9325301 L123.102094,19.346988 L119.610471,19.346988 L119.610471,21.9325301 L117.014136,21.9325301 L117.014136,25.4096386 L119.610471,25.4096386 L119.610471,27.9951807 L123.102094,27.9951807 L123.102094,25.4096386 L125.698429,25.4096386 L125.698429,21.9325301 Z" id="Shape"></path>
                <g id="Group" transform="translate(0.000000, 8.024096)">
                    <path d="M1.79057592,17.1180723 L1.79057592,-0.26746988 L13.7874346,-0.26746988 L13.7874346,2.6746988 L5.28219895,2.6746988 L5.28219895,6.77590361 L12.5340314,6.77590361 L12.5340314,9.71807229 L5.28219895,9.71807229 L5.28219895,17.1180723 L1.79057592,17.1180723 L1.79057592,17.1180723 Z" id="Shape"></path>
                    <path d="M15.3989529,17.1180723 L15.3989529,-0.26746988 L18.7115183,-0.26746988 L18.7115183,17.1180723 L15.3989529,17.1180723 L15.3989529,17.1180723 Z" id="Shape"></path>
                    <path d="M20.1439791,10.6096386 C20.1439791,9.53975904 20.4125654,8.46987952 20.9497382,7.4 C21.486911,6.33012048 22.2926702,5.61686747 23.2774869,4.99277108 C24.2623037,4.3686747 25.426178,4.19036145 26.6795812,4.19036145 C28.5596859,4.19036145 30.1712042,4.81445783 31.4246073,6.0626506 C32.6780105,7.31084337 33.2151832,8.82650602 33.2151832,10.7879518 C33.2151832,12.660241 32.5884817,14.2650602 31.3350785,15.513253 C30.0816754,16.7614458 28.5596859,17.3855422 26.6795812,17.3855422 C25.5157068,17.3855422 24.4413613,17.1180723 23.3670157,16.5831325 C22.2926702,16.0481928 21.486911,15.3349398 20.9497382,14.2650602 C20.4125654,13.2843373 20.1439791,12.0361446 20.1439791,10.6096386 L20.1439791,10.6096386 Z M23.6356021,10.7879518 C23.6356021,12.0361446 23.9041885,13.0168675 24.5308901,13.6409639 C25.1575916,14.2650602 25.873822,14.6216867 26.7691099,14.6216867 C27.6643979,14.6216867 28.3806283,14.2650602 29.0073298,13.6409639 C29.6340314,13.0168675 29.9026178,12.0361446 29.9026178,10.7879518 C29.9026178,9.53975904 29.6340314,8.64819277 29.0073298,7.93493976 C28.3806283,7.31084337 27.6643979,6.95421687 26.7691099,6.95421687 C25.873822,6.95421687 25.1575916,7.31084337 24.5308901,7.93493976 C23.9041885,8.55903614 23.6356021,9.53975904 23.6356021,10.7879518 L23.6356021,10.7879518 Z" id="Shape"></path>
                    <path d="M37.8706806,17.1180723 L34.5581152,17.1180723 L34.5581152,4.54698795 L37.6020942,4.54698795 L37.6020942,6.33012048 C38.139267,5.52771084 38.586911,4.90361446 39.034555,4.63614458 C39.482199,4.3686747 39.9298429,4.19036145 40.4670157,4.19036145 C41.2727749,4.19036145 41.9890052,4.3686747 42.7052356,4.81445783 L41.6308901,7.75662651 C41.0937173,7.4 40.5565445,7.22168675 40.0193717,7.22168675 C39.5717277,7.22168675 39.1240838,7.31084337 38.8554974,7.57831325 C38.4973822,7.84578313 38.3183246,8.29156627 38.0497382,9.00481928 C37.8706806,9.71807229 37.7811518,11.0554217 37.7811518,13.1951807 L37.7811518,17.1180723 L37.8706806,17.1180723 Z" id="Shape"></path>
                    <path d="M43.8691099,2.76385542 L43.8691099,-0.26746988 L47.1816754,-0.26746988 L47.1816754,2.85301205 L43.8691099,2.85301205 L43.8691099,2.76385542 Z M43.8691099,17.1180723 L43.8691099,4.54698795 L47.1816754,4.54698795 L47.1816754,17.1180723 L43.8691099,17.1180723 L43.8691099,17.1180723 Z" id="Shape"></path>
                    <path d="M61.0586387,17.1180723 L57.9251309,17.1180723 L57.9251309,15.2457831 C57.3879581,15.9590361 56.7612565,16.4939759 56.134555,16.8506024 C55.4183246,17.2072289 54.7020942,17.3855422 53.9858639,17.3855422 C52.5534031,17.3855422 51.3,16.7614458 50.2256545,15.6024096 C49.1513089,14.4433735 48.7036649,12.8385542 48.7036649,10.6987952 C48.7036649,8.55903614 49.2408377,6.95421687 50.2256545,5.79518072 C51.2104712,4.7253012 52.5534031,4.10120482 54.0753927,4.10120482 C55.5078534,4.10120482 56.6717277,4.7253012 57.7460733,5.88433735 L57.7460733,-0.356626506 L61.0586387,-0.356626506 L61.0586387,17.1180723 L61.0586387,17.1180723 Z M52.1057592,10.5204819 C52.1057592,11.8578313 52.2848168,12.8385542 52.6429319,13.4626506 C53.1801047,14.3542169 53.8963351,14.8 54.8811518,14.8 C55.686911,14.8 56.3136126,14.4433735 56.8507853,13.8192771 C57.3879581,13.1951807 57.6565445,12.2144578 57.6565445,10.8771084 C57.6565445,9.45060241 57.3879581,8.38072289 56.8507853,7.75662651 C56.3136126,7.13253012 55.686911,6.77590361 54.8811518,6.77590361 C54.0753927,6.77590361 53.4486911,7.13253012 52.9115183,7.75662651 C52.3743455,8.38072289 52.1057592,9.27228916 52.1057592,10.5204819 L52.1057592,10.5204819 Z" id="Shape"></path>
                    <path d="M65.6246073,8.38072289 L62.5806283,7.84578313 C62.9387435,6.59759036 63.4759162,5.7060241 64.3712042,5.17108434 C65.1769634,4.54698795 66.4303665,4.27951807 68.1314136,4.27951807 C69.6534031,4.27951807 70.7277487,4.45783133 71.4439791,4.81445783 C72.1602094,5.17108434 72.6973822,5.61686747 72.9659686,6.15180723 C73.234555,6.68674699 73.4136126,7.66746988 73.4136126,9.0939759 L73.4136126,13.0168675 C73.4136126,14.086747 73.5031414,14.9783133 73.5926702,15.4240964 C73.682199,15.9590361 73.8612565,16.4939759 74.2193717,17.1180723 L70.9068063,17.1180723 C70.8172775,16.939759 70.7277487,16.5831325 70.5486911,16.1373494 C70.4591623,15.9590361 70.4591623,15.7807229 70.4591623,15.7807229 C69.9219895,16.3156627 69.295288,16.7614458 68.6685864,17.0289157 C68.0418848,17.2963855 67.3256545,17.4746988 66.6094241,17.4746988 C65.2664921,17.4746988 64.2816754,17.1180723 63.565445,16.4048193 C62.8492147,15.6915663 62.4015707,14.8 62.4015707,13.7301205 C62.4015707,13.0168675 62.5806283,12.3927711 62.9387435,11.8578313 C63.2968586,11.3228916 63.7445026,10.8771084 64.3712042,10.6096386 C64.9979058,10.3421687 65.8931937,10.0746988 67.0570681,9.80722892 C68.5790576,9.53975904 69.7429319,9.27228916 70.2801047,9.00481928 L70.2801047,8.64819277 C70.2801047,8.02409639 70.1010471,7.57831325 69.8324607,7.31084337 C69.4743455,7.04337349 68.9371728,6.86506024 68.0418848,6.86506024 C67.4151832,6.86506024 66.9675393,6.95421687 66.6094241,7.22168675 C66.0722513,7.4 65.8036649,7.75662651 65.6246073,8.38072289 L65.6246073,8.38072289 Z M70.1010471,11.0554217 C69.6534031,11.2337349 69.0267016,11.4120482 68.0418848,11.5903614 C67.1465969,11.7686747 66.5198953,11.946988 66.2513089,12.2144578 C65.8036649,12.4819277 65.6246073,12.9277108 65.6246073,13.373494 C65.6246073,13.8192771 65.8036649,14.2650602 66.1617801,14.6216867 C66.5198953,14.9783133 66.9675393,15.1566265 67.504712,15.1566265 C68.1314136,15.1566265 68.6685864,14.9783133 69.2057592,14.5325301 C69.6534031,14.2650602 69.8324607,13.9084337 70.0115183,13.4626506 C70.1010471,13.1951807 70.1010471,12.660241 70.1010471,11.8578313 L70.1010471,11.0554217 L70.1010471,11.0554217 Z" id="Shape"></path>
                    <path d="M1.79057592,39.3180723 L1.79057592,21.9325301 L5.28219895,21.9325301 L5.28219895,28.7975904 L12.1759162,28.7975904 L12.1759162,21.9325301 L15.6675393,21.9325301 L15.6675393,39.3180723 L12.1759162,39.3180723 L12.1759162,31.739759 L5.28219895,31.739759 L5.28219895,39.3180723 L1.79057592,39.3180723 L1.79057592,39.3180723 Z" id="Shape"></path>
                    <path d="M25.426178,35.3060241 L28.7387435,35.8409639 C28.2910995,37.0891566 27.6643979,37.9807229 26.6795812,38.6048193 C25.7842932,39.2289157 24.6204188,39.5855422 23.1879581,39.5855422 C20.9497382,39.5855422 19.3382199,38.8722892 18.2638743,37.4457831 C17.4581152,36.286747 17.0104712,34.860241 17.0104712,33.0771084 C17.0104712,31.026506 17.547644,29.3325301 18.6219895,28.173494 C19.6963351,27.0144578 21.1287958,26.3903614 22.7403141,26.3903614 C24.6204188,26.3903614 26.1424084,27.0144578 27.2167539,28.2626506 C28.2910995,29.5108434 28.8282723,31.3831325 28.7387435,33.9686747 L20.591623,33.9686747 C20.591623,34.9493976 20.8602094,35.7518072 21.3973822,36.286747 C21.934555,36.8216867 22.5612565,37.0891566 23.3670157,37.0891566 C23.9041885,37.0891566 24.3518325,36.9108434 24.7099476,36.6433735 C24.978534,36.3759036 25.2471204,35.9301205 25.426178,35.3060241 L25.426178,35.3060241 Z M25.6052356,31.9180723 C25.6052356,30.9373494 25.3366492,30.2240964 24.8890052,29.6891566 C24.4413613,29.1542169 23.8146597,28.9759036 23.1879581,28.9759036 C22.4717277,28.9759036 21.8450262,29.2433735 21.3973822,29.7783133 C20.8602094,30.313253 20.591623,31.026506 20.591623,31.9180723 L25.6052356,31.9180723 L25.6052356,31.9180723 Z" id="Shape"></path>
                    <path d="M33.4837696,30.5807229 L30.4397906,29.9566265 C30.7979058,28.7084337 31.3350785,27.8168675 32.2303665,27.2819277 C33.0361257,26.6578313 34.2895288,26.3903614 35.9905759,26.3903614 C37.5125654,26.3903614 38.586911,26.5686747 39.3031414,26.9253012 C40.0193717,27.2819277 40.5565445,27.7277108 40.8251309,28.2626506 C41.0937173,28.7975904 41.2727749,29.7783133 41.2727749,31.2048193 L41.2727749,35.1277108 C41.2727749,36.1975904 41.3623037,37.0891566 41.4518325,37.5349398 C41.5413613,38.0698795 41.7204188,38.6048193 42.078534,39.2289157 L38.7659686,39.2289157 C38.6764398,39.0506024 38.586911,38.6939759 38.4078534,38.2481928 C38.3183246,38.0698795 38.3183246,37.8915663 38.3183246,37.8915663 C37.7811518,38.426506 37.1544503,38.8722892 36.5277487,39.139759 C35.9010471,39.4072289 35.1848168,39.5855422 34.4685864,39.5855422 C33.1256545,39.5855422 32.1408377,39.2289157 31.4246073,38.5156627 C30.708377,37.8024096 30.260733,36.9108434 30.260733,35.8409639 C30.260733,35.1277108 30.4397906,34.5036145 30.7979058,33.9686747 C31.1560209,33.4337349 31.6036649,32.9879518 32.2303665,32.7204819 C32.8570681,32.453012 33.752356,32.1855422 34.9162304,31.9180723 C36.4382199,31.6506024 37.6020942,31.3831325 38.139267,31.1156627 L38.139267,30.7590361 C38.139267,30.1349398 37.9602094,29.6891566 37.691623,29.4216867 C37.3335079,29.1542169 36.7963351,28.9759036 35.9010471,28.9759036 C35.2743455,28.9759036 34.8267016,29.0650602 34.4685864,29.3325301 C33.9314136,29.5108434 33.6628272,29.9566265 33.4837696,30.5807229 L33.4837696,30.5807229 Z M37.9602094,33.2554217 C37.5125654,33.4337349 36.8858639,33.6120482 35.9010471,33.7903614 C35.0057592,33.9686747 34.3790576,34.146988 34.1104712,34.4144578 C33.6628272,34.6819277 33.4837696,35.1277108 33.4837696,35.573494 C33.4837696,36.0192771 33.6628272,36.4650602 34.0209424,36.8216867 C34.3790576,37.1783133 34.8267016,37.3566265 35.3638743,37.3566265 C35.9905759,37.3566265 36.5277487,37.1783133 37.0649215,36.7325301 C37.5125654,36.4650602 37.691623,36.1084337 37.8706806,35.6626506 C37.9602094,35.3951807 37.9602094,34.860241 37.9602094,34.0578313 L37.9602094,33.2554217 L37.9602094,33.2554217 Z" id="Shape"></path>
                    <path d="M43.3319372,39.3180723 L43.3319372,21.9325301 L46.6445026,21.9325301 L46.6445026,39.3180723 L43.3319372,39.3180723 L43.3319372,39.3180723 Z" id="Shape"></path>
                    <path d="M54.6125654,26.6578313 L54.6125654,29.3325301 L52.2848168,29.3325301 L52.2848168,34.4144578 C52.2848168,35.4843373 52.2848168,36.0192771 52.3743455,36.1975904 C52.3743455,36.3759036 52.5534031,36.4650602 52.6429319,36.6433735 C52.8219895,36.7325301 53.0010471,36.8216867 53.1801047,36.8216867 C53.4486911,36.8216867 53.8963351,36.7325301 54.5230366,36.4650602 L54.791623,39.0506024 C53.9858639,39.4072289 53.0905759,39.5855422 52.1057592,39.5855422 C51.4790576,39.5855422 50.9418848,39.4963855 50.4942408,39.3180723 C50.0465969,39.139759 49.6884817,38.8722892 49.4198953,38.5156627 C49.1513089,38.1590361 49.0617801,37.8024096 48.9722513,37.1783133 C48.8827225,36.8216867 48.8827225,36.0192771 48.8827225,34.860241 L48.8827225,29.3325301 L47.4502618,29.3325301 L47.4502618,26.6578313 L48.9722513,26.6578313 L48.9722513,24.1614458 L52.3743455,22.2 L52.3743455,26.6578313 L54.6125654,26.6578313 L54.6125654,26.6578313 Z" id="Shape"></path>
                    <path d="M59.0890052,21.9325301 L59.0890052,28.3518072 C60.1633508,27.1036145 61.4167539,26.4795181 62.9387435,26.4795181 C63.7445026,26.4795181 64.3712042,26.6578313 64.9979058,26.9253012 C65.6246073,27.1927711 66.0722513,27.5493976 66.4303665,27.9951807 C66.7884817,28.4409639 66.9675393,28.886747 67.0570681,29.4216867 C67.1465969,29.9566265 67.2361257,30.7590361 67.2361257,31.9180723 L67.2361257,39.3180723 L63.9235602,39.3180723 L63.9235602,32.6313253 C63.9235602,31.2939759 63.8340314,30.4915663 63.7445026,30.1349398 C63.6549738,29.7783133 63.3863874,29.5108434 63.0282723,29.2433735 C62.6701571,29.0650602 62.3120419,28.886747 61.8643979,28.886747 C61.3272251,28.886747 60.7900524,29.0650602 60.3424084,29.3325301 C59.8947644,29.6 59.626178,30.0457831 59.3575916,30.5807229 C59.178534,31.1156627 59.0890052,31.9180723 59.0890052,32.9879518 L59.0890052,39.3180723 L55.7764398,39.3180723 L55.7764398,21.9325301 L59.0890052,21.9325301 L59.0890052,21.9325301 Z" id="Shape"></path>
                    <path d="M86.2162304,32.8987952 L89.6183246,33.9686747 C89.0811518,35.8409639 88.1858639,37.2674699 87.0219895,38.1590361 C85.7685864,39.0506024 84.2465969,39.4963855 82.3664921,39.4963855 C80.0387435,39.4963855 78.1586387,38.6939759 76.6366492,37.0891566 C75.1146597,35.4843373 74.3984293,33.3445783 74.3984293,30.5807229 C74.3984293,27.7277108 75.1146597,25.4096386 76.6366492,23.8048193 C78.1586387,22.2 80.1282723,21.3975904 82.5455497,21.3975904 C84.6942408,21.3975904 86.395288,22.0216867 87.7382199,23.2698795 C88.5439791,23.9831325 89.1706806,25.053012 89.5287958,26.4795181 L86.0371728,27.2819277 C85.8581152,26.3903614 85.4104712,25.6771084 84.7837696,25.1421687 C84.1570681,24.6072289 83.3513089,24.339759 82.3664921,24.339759 C81.113089,24.339759 80.0387435,24.7855422 79.2329843,25.7662651 C78.4272251,26.6578313 78.0691099,28.173494 78.0691099,30.2240964 C78.0691099,32.453012 78.4272251,33.9686747 79.2329843,34.9493976 C80.0387435,35.8409639 81.0235602,36.3759036 82.3664921,36.3759036 C83.2617801,36.3759036 84.0675393,36.1084337 84.7837696,35.4843373 C85.4104712,35.1277108 85.8581152,34.146988 86.2162304,32.8987952 L86.2162304,32.8987952 Z" id="Shape"></path>
                    <path d="M93.9157068,30.5807229 L90.8717277,30.0457831 C91.2298429,28.7975904 91.7670157,27.9060241 92.6623037,27.3710843 C93.4680628,26.746988 94.721466,26.4795181 96.4225131,26.4795181 C97.9445026,26.4795181 99.0188482,26.6578313 99.7350785,27.0144578 C100.451309,27.3710843 100.988482,27.8168675 101.257068,28.3518072 C101.525654,28.886747 101.704712,29.8674699 101.704712,31.2939759 L101.704712,35.2168675 C101.704712,36.286747 101.794241,37.1783133 101.88377,37.6240964 C101.973298,38.0698795 102.152356,38.6939759 102.510471,39.3180723 L99.1979058,39.3180723 C99.108377,39.139759 99.0188482,38.7831325 98.8397906,38.3373494 C98.7502618,38.1590361 98.7502618,37.9807229 98.7502618,37.9807229 C98.213089,38.5156627 97.5863874,38.9614458 96.9596859,39.2289157 C96.3329843,39.4963855 95.6167539,39.6746988 94.9005236,39.6746988 C93.5575916,39.6746988 92.5727749,39.3180723 91.8565445,38.6048193 C91.1403141,37.8915663 90.6926702,37 90.6926702,35.9301205 C90.6926702,35.2168675 90.8717277,34.5927711 91.2298429,34.0578313 C91.5879581,33.5228916 92.0356021,33.0771084 92.6623037,32.8096386 C93.2890052,32.5421687 94.1842932,32.2746988 95.3481675,32.0072289 C96.8701571,31.739759 98.0340314,31.4722892 98.5712042,31.2048193 L98.5712042,30.8481928 C98.5712042,30.2240964 98.3921466,29.7783133 98.1235602,29.5108434 C97.765445,29.2433735 97.2282723,29.0650602 96.3329843,29.0650602 C95.7062827,29.0650602 95.2586387,29.1542169 94.9005236,29.4216867 C94.3633508,29.5108434 94.0947644,29.9566265 93.9157068,30.5807229 L93.9157068,30.5807229 Z M98.3921466,33.2554217 C97.9445026,33.4337349 97.317801,33.6120482 96.3329843,33.7903614 C95.4376963,33.9686747 94.8109948,34.146988 94.5424084,34.4144578 C94.0947644,34.6819277 93.9157068,35.1277108 93.9157068,35.573494 C93.9157068,36.0192771 94.0947644,36.4650602 94.4528796,36.8216867 C94.8109948,37.1783133 95.2586387,37.3566265 95.7958115,37.3566265 C96.4225131,37.3566265 96.9596859,37.1783133 97.4968586,36.7325301 C97.9445026,36.4650602 98.1235602,36.1084337 98.3026178,35.6626506 C98.3921466,35.3951807 98.3921466,34.860241 98.3921466,34.0578313 L98.3921466,33.2554217 L98.3921466,33.2554217 Z" id="Shape"></path>
                    <path d="M107.434555,39.3180723 L104.12199,39.3180723 L104.12199,26.6578313 L107.255497,26.6578313 L107.255497,28.4409639 C107.79267,27.6385542 108.240314,27.0144578 108.687958,26.746988 C109.135602,26.4795181 109.583246,26.3012048 110.120419,26.3012048 C110.926178,26.3012048 111.642408,26.4795181 112.358639,26.9253012 L111.284293,29.8674699 C110.74712,29.5108434 110.209948,29.3325301 109.672775,29.3325301 C109.225131,29.3325301 108.777487,29.4216867 108.508901,29.6891566 C108.240314,29.9566265 107.971728,30.4024096 107.703141,31.1156627 C107.524084,31.8289157 107.434555,33.1662651 107.434555,35.3060241 L107.434555,39.3180723 L107.434555,39.3180723 Z" id="Shape"></path>
                    <path d="M120.326702,35.3060241 L123.639267,35.8409639 C123.191623,37.0891566 122.564921,37.9807229 121.580105,38.6048193 C120.684817,39.2289157 119.520942,39.5855422 118.088482,39.5855422 C115.850262,39.5855422 114.238743,38.8722892 113.164398,37.4457831 C112.358639,36.286747 111.910995,34.860241 111.910995,33.0771084 C111.910995,31.026506 112.448168,29.3325301 113.522513,28.173494 C114.596859,27.0144578 116.029319,26.3903614 117.640838,26.3903614 C119.520942,26.3903614 121.042932,27.0144578 122.117277,28.2626506 C123.191623,29.5108434 123.728796,31.3831325 123.639267,33.9686747 L115.22356,33.9686747 C115.22356,34.9493976 115.492147,35.7518072 116.029319,36.286747 C116.566492,36.8216867 117.193194,37.0891566 117.998953,37.0891566 C118.536126,37.0891566 118.98377,36.9108434 119.341885,36.6433735 C119.879058,36.3759036 120.147644,35.9301205 120.326702,35.3060241 L120.326702,35.3060241 Z M120.505759,31.9180723 C120.505759,30.9373494 120.237173,30.2240964 119.789529,29.6891566 C119.341885,29.1542169 118.715183,28.9759036 118.088482,28.9759036 C117.372251,28.9759036 116.74555,29.2433735 116.297906,29.7783133 C115.850262,30.313253 115.581675,31.026506 115.581675,31.9180723 L120.505759,31.9180723 L120.505759,31.9180723 Z" id="Shape"></path>
                    <path d="M17.4581152,61.5180723 L13.608377,61.5180723 L12.0863874,57.5951807 L5.10314136,57.5951807 L3.67068063,61.5180723 L0,61.5180723 L6.80418848,44.1325301 L10.5643979,44.1325301 L17.4581152,61.5180723 L17.4581152,61.5180723 Z M11.0120419,54.5638554 L8.5947644,48.1445783 L6.26701571,54.5638554 L11.0120419,54.5638554 L11.0120419,54.5638554 Z" id="Shape"></path>
                    <path d="M16.9209424,57.8626506 L20.3230366,57.3277108 C20.5020942,57.9518072 20.7706806,58.486747 21.2183246,58.8433735 C21.6659686,59.2 22.2926702,59.3783133 23.0089005,59.3783133 C23.9041885,59.3783133 24.5308901,59.2 24.978534,58.9325301 C25.2471204,58.7542169 25.426178,58.3975904 25.426178,58.0409639 C25.426178,57.773494 25.3366492,57.5951807 25.1575916,57.4168675 C24.978534,57.2385542 24.6204188,57.1493976 23.9937173,56.9710843 C21.3078534,56.346988 19.6068063,55.8120482 18.8905759,55.3662651 C17.9057592,54.653012 17.3685864,53.7614458 17.3685864,52.513253 C17.3685864,51.4433735 17.8162304,50.4626506 18.7115183,49.7493976 C19.6068063,49.0361446 20.9497382,48.5903614 22.7403141,48.5903614 C24.4413613,48.5903614 25.7842932,48.8578313 26.5900524,49.3927711 C27.3958115,49.9277108 28.0225131,50.8192771 28.2910995,51.8891566 L25.1575916,52.513253 C24.978534,51.9783133 24.7994764,51.6216867 24.3518325,51.3542169 C23.9937173,51.086747 23.4565445,50.9975904 22.7403141,50.9975904 C21.8450262,50.9975904 21.2183246,51.086747 20.8602094,51.3542169 C20.591623,51.5325301 20.5020942,51.7108434 20.5020942,52.0674699 C20.5020942,52.3349398 20.591623,52.513253 20.8602094,52.6915663 C21.1287958,52.8698795 22.2031414,53.226506 23.9937173,53.6722892 C25.7842932,54.1180723 27.0376963,54.5638554 27.7539267,55.1879518 C28.4701571,55.8120482 28.8282723,56.6144578 28.8282723,57.6843373 C28.8282723,58.8433735 28.3806283,59.8240964 27.3958115,60.626506 C26.4109948,61.4289157 24.978534,61.8746988 23.0984293,61.8746988 C21.3973822,61.8746988 20.0544503,61.5180723 18.9801047,60.8048193 C17.9057592,60.0024096 17.2790576,59.1108434 16.9209424,57.8626506 L16.9209424,57.8626506 Z" id="Shape"></path>
                    <path d="M29.2759162,57.8626506 L32.6780105,57.3277108 C32.8570681,57.9518072 33.1256545,58.486747 33.5732984,58.8433735 C34.0209424,59.2 34.647644,59.3783133 35.3638743,59.3783133 C36.2591623,59.3783133 36.8858639,59.2 37.3335079,58.9325301 C37.6020942,58.7542169 37.7811518,58.3975904 37.7811518,58.0409639 C37.7811518,57.773494 37.691623,57.5951807 37.5125654,57.4168675 C37.3335079,57.2385542 36.9753927,57.1493976 36.3486911,56.9710843 C33.6628272,56.346988 31.9617801,55.8120482 31.2455497,55.3662651 C30.260733,54.653012 29.7235602,53.7614458 29.7235602,52.513253 C29.7235602,51.4433735 30.1712042,50.4626506 31.0664921,49.7493976 C31.9617801,49.0361446 33.304712,48.5903614 35.095288,48.5903614 C36.7963351,48.5903614 38.139267,48.8578313 38.9450262,49.3927711 C39.7507853,49.9277108 40.3774869,50.8192771 40.6460733,51.8891566 L37.5125654,52.513253 C37.3335079,51.9783133 37.1544503,51.6216867 36.7068063,51.3542169 C36.3486911,51.086747 35.8115183,50.9975904 35.095288,50.9975904 C34.2,50.9975904 33.5732984,51.086747 33.2151832,51.3542169 C32.9465969,51.5325301 32.8570681,51.7108434 32.8570681,52.0674699 C32.8570681,52.3349398 32.9465969,52.513253 33.2151832,52.6915663 C33.4837696,52.8698795 34.5581152,53.226506 36.3486911,53.6722892 C38.139267,54.1180723 39.3926702,54.5638554 40.1089005,55.1879518 C40.8251309,55.8120482 41.1832461,56.6144578 41.1832461,57.6843373 C41.1832461,58.8433735 40.7356021,59.8240964 39.7507853,60.626506 C38.7659686,61.4289157 37.3335079,61.8746988 35.4534031,61.8746988 C33.752356,61.8746988 32.4094241,61.5180723 31.3350785,60.8048193 C30.260733,60.0024096 29.6340314,59.1108434 29.2759162,57.8626506 L29.2759162,57.8626506 Z" id="Shape"></path>
                    <path d="M42.078534,55.0096386 C42.078534,53.939759 42.3471204,52.8698795 42.8842932,51.8 C43.421466,50.7301205 44.2272251,50.0168675 45.2120419,49.3927711 C46.1968586,48.7686747 47.360733,48.5903614 48.6141361,48.5903614 C50.4942408,48.5903614 52.1057592,49.2144578 53.3591623,50.4626506 C54.6125654,51.7108434 55.1497382,53.226506 55.1497382,55.1879518 C55.1497382,57.060241 54.5230366,58.6650602 53.2696335,59.913253 C52.0162304,61.1614458 50.4942408,61.7855422 48.6141361,61.7855422 C47.4502618,61.7855422 46.3759162,61.5180723 45.3015707,60.9831325 C44.2272251,60.4481928 43.421466,59.7349398 42.8842932,58.6650602 C42.3471204,57.6843373 42.078534,56.4361446 42.078534,55.0096386 L42.078534,55.0096386 Z M45.4806283,55.1879518 C45.4806283,56.4361446 45.7492147,57.4168675 46.3759162,58.0409639 C47.0026178,58.6650602 47.7188482,59.0216867 48.6141361,59.0216867 C49.5094241,59.0216867 50.2256545,58.6650602 50.852356,58.0409639 C51.4790576,57.4168675 51.747644,56.4361446 51.747644,55.1879518 C51.747644,53.939759 51.4790576,53.0481928 50.852356,52.3349398 C50.2256545,51.7108434 49.5094241,51.3542169 48.6141361,51.3542169 C47.7188482,51.3542169 47.0026178,51.7108434 46.3759162,52.3349398 C45.7492147,52.9590361 45.4806283,53.939759 45.4806283,55.1879518 L45.4806283,55.1879518 Z" id="Shape"></path>
                    <path d="M67.504712,52.6024096 L64.1921466,53.226506 C64.1026178,52.6024096 63.8340314,52.0674699 63.4759162,51.7108434 C63.117801,51.3542169 62.5806283,51.1759036 61.9539267,51.1759036 C61.1481675,51.1759036 60.4319372,51.4433735 59.9842932,52.0674699 C59.4471204,52.6024096 59.2680628,53.5831325 59.2680628,54.9204819 C59.2680628,56.4361446 59.5366492,57.5060241 59.9842932,58.1301205 C60.521466,58.7542169 61.1481675,59.0216867 62.0434555,59.0216867 C62.6701571,59.0216867 63.2073298,58.8433735 63.565445,58.486747 C64.013089,58.1301205 64.2816754,57.5060241 64.460733,56.6144578 L67.7732984,57.1493976 C67.4151832,58.6650602 66.7884817,59.8240964 65.8036649,60.5373494 C64.8188482,61.339759 63.565445,61.6963855 61.8643979,61.6963855 C59.9842932,61.6963855 58.5518325,61.0722892 57.4774869,59.913253 C56.4031414,58.7542169 55.8659686,57.1493976 55.8659686,55.0987952 C55.8659686,53.0481928 56.4031414,51.4433735 57.4774869,50.2843373 C58.5518325,49.1253012 60.073822,48.5903614 61.9539267,48.5903614 C63.4759162,48.5903614 64.7293194,48.946988 65.6246073,49.5710843 C66.4303665,50.2843373 67.1465969,51.2650602 67.504712,52.6024096 L67.504712,52.6024096 Z" id="Shape"></path>
                    <path d="M68.847644,47.1638554 L68.847644,44.0433735 L72.1602094,44.0433735 L72.1602094,47.1638554 L68.847644,47.1638554 L68.847644,47.1638554 Z M68.847644,61.5180723 L68.847644,48.8578313 L72.1602094,48.8578313 L72.1602094,61.5180723 L68.847644,61.5180723 L68.847644,61.5180723 Z" id="Shape"></path>
                    <path d="M76.9052356,52.6915663 L73.8612565,52.1566265 C74.2193717,50.9084337 74.7565445,50.0168675 75.6518325,49.4819277 C76.4575916,48.8578313 77.7109948,48.5903614 79.4120419,48.5903614 C80.9340314,48.5903614 82.008377,48.7686747 82.7246073,49.1253012 C83.4408377,49.4819277 83.9780105,49.9277108 84.2465969,50.4626506 C84.5151832,50.9975904 84.6942408,51.9783133 84.6942408,53.4048193 L84.6942408,57.3277108 C84.6942408,58.3975904 84.7837696,59.2891566 84.8732984,59.7349398 C84.9628272,60.2698795 85.1418848,60.8048193 85.5,61.4289157 L82.1874346,61.4289157 C82.0979058,61.2506024 82.008377,60.8939759 81.8293194,60.4481928 C81.7397906,60.2698795 81.7397906,60.0915663 81.7397906,60.0915663 C81.2026178,60.626506 80.5759162,61.0722892 79.9492147,61.339759 C79.3225131,61.6072289 78.6062827,61.7855422 77.8900524,61.7855422 C76.5471204,61.7855422 75.5623037,61.4289157 74.8460733,60.7156627 C74.1298429,60.0024096 73.682199,59.1108434 73.682199,58.0409639 C73.682199,57.3277108 73.8612565,56.7036145 74.2193717,56.1686747 C74.5774869,55.6337349 75.0251309,55.1879518 75.6518325,54.9204819 C76.278534,54.653012 77.173822,54.3855422 78.3376963,54.1180723 C79.8596859,53.8506024 81.0235602,53.5831325 81.560733,53.3156627 L81.560733,52.9590361 C81.560733,52.3349398 81.3816754,51.8891566 81.113089,51.6216867 C80.7549738,51.3542169 80.217801,51.1759036 79.3225131,51.1759036 C78.6958115,51.1759036 78.2481675,51.2650602 77.8900524,51.5325301 C77.3528796,51.7108434 77.0842932,52.1566265 76.9052356,52.6915663 L76.9052356,52.6915663 Z M81.3816754,55.4554217 C80.9340314,55.6337349 80.3073298,55.8120482 79.3225131,55.9903614 C78.4272251,56.1686747 77.8005236,56.346988 77.5319372,56.6144578 C77.0842932,56.8819277 76.9052356,57.3277108 76.9052356,57.773494 C76.9052356,58.2192771 77.0842932,58.6650602 77.4424084,59.0216867 C77.8005236,59.3783133 78.2481675,59.5566265 78.7853403,59.5566265 C79.4120419,59.5566265 79.9492147,59.3783133 80.4863874,58.9325301 C80.9340314,58.6650602 81.113089,58.3084337 81.2921466,57.8626506 C81.3816754,57.5951807 81.3816754,57.060241 81.3816754,56.2578313 L81.3816754,55.4554217 L81.3816754,55.4554217 Z" id="Shape"></path>
                    <path d="M93.0204188,48.8578313 L93.0204188,51.5325301 L90.6926702,51.5325301 L90.6926702,56.6144578 C90.6926702,57.6843373 90.6926702,58.2192771 90.782199,58.3975904 C90.782199,58.5759036 90.9612565,58.6650602 91.0507853,58.8433735 C91.2298429,58.9325301 91.4089005,59.0216867 91.5879581,59.0216867 C91.8565445,59.0216867 92.3041885,58.9325301 92.9308901,58.6650602 L93.1994764,61.2506024 C92.3937173,61.6072289 91.4984293,61.7855422 90.5136126,61.7855422 C89.886911,61.7855422 89.3497382,61.6963855 88.9020942,61.5180723 C88.4544503,61.339759 88.0963351,61.0722892 87.8277487,60.7156627 C87.5591623,60.3590361 87.4696335,60.0024096 87.3801047,59.3783133 C87.2905759,59.0216867 87.2905759,58.2192771 87.2905759,57.060241 L87.2905759,51.5325301 L85.7685864,51.5325301 L85.7685864,48.8578313 L87.2905759,48.8578313 L87.2905759,46.3614458 L90.6926702,44.4 L90.6926702,48.8578313 L93.0204188,48.8578313 L93.0204188,48.8578313 Z" id="Shape"></path>
                    <path d="M95.0795812,47.1638554 L95.0795812,44.0433735 L98.3921466,44.0433735 L98.3921466,47.1638554 L95.0795812,47.1638554 L95.0795812,47.1638554 Z M95.0795812,61.5180723 L95.0795812,48.8578313 L98.3921466,48.8578313 L98.3921466,61.5180723 L95.0795812,61.5180723 L95.0795812,61.5180723 Z" id="Shape"></path>
                    <path d="M99.9141361,55.0096386 C99.9141361,53.939759 100.182723,52.8698795 100.719895,51.8 C101.257068,50.7301205 102.062827,50.0168675 103.047644,49.3927711 C104.032461,48.7686747 105.196335,48.5903614 106.449738,48.5903614 C108.329843,48.5903614 109.941361,49.2144578 111.194764,50.4626506 C112.448168,51.7108434 112.98534,53.226506 112.98534,55.1879518 C112.98534,57.060241 112.358639,58.6650602 111.105236,59.913253 C109.851832,61.1614458 108.329843,61.7855422 106.449738,61.7855422 C105.285864,61.7855422 104.211518,61.5180723 103.137173,60.9831325 C102.062827,60.4481928 101.257068,59.7349398 100.719895,58.6650602 C100.182723,57.6843373 99.9141361,56.4361446 99.9141361,55.0096386 L99.9141361,55.0096386 Z M103.31623,55.1879518 C103.31623,56.4361446 103.584817,57.4168675 104.211518,58.0409639 C104.83822,58.6650602 105.55445,59.0216867 106.449738,59.0216867 C107.345026,59.0216867 108.061257,58.6650602 108.687958,58.0409639 C109.31466,57.4168675 109.583246,56.4361446 109.583246,55.1879518 C109.583246,53.939759 109.31466,53.0481928 108.687958,52.3349398 C108.061257,51.7108434 107.345026,51.3542169 106.449738,51.3542169 C105.55445,51.3542169 104.83822,51.7108434 104.211518,52.3349398 C103.584817,52.9590361 103.31623,53.939759 103.31623,55.1879518 L103.31623,55.1879518 Z" id="Shape"></path>
                    <path d="M125.877487,61.5180723 L122.564921,61.5180723 L122.564921,55.0987952 C122.564921,53.7614458 122.475393,52.8698795 122.385864,52.4240964 C122.206806,52.0674699 122.027749,51.7108434 121.669634,51.5325301 C121.311518,51.3542169 120.953403,51.1759036 120.505759,51.1759036 C119.968586,51.1759036 119.431414,51.3542169 118.98377,51.6216867 C118.536126,51.9783133 118.17801,52.3349398 117.998953,52.8698795 C117.819895,53.4048193 117.730366,54.3855422 117.730366,55.7228916 L117.730366,61.5180723 L114.417801,61.5180723 L114.417801,48.8578313 L117.551309,48.8578313 L117.551309,50.7301205 C118.625654,49.3036145 120.058115,48.5903614 121.759162,48.5903614 C122.475393,48.5903614 123.191623,48.6795181 123.818325,48.946988 C124.445026,49.2144578 124.89267,49.5710843 125.161257,49.9277108 C125.519372,50.373494 125.698429,50.8192771 125.787958,51.3542169 C125.877487,51.8891566 125.967016,52.6024096 125.967016,53.5831325 L125.967016,61.5180723 L125.877487,61.5180723 Z" id="Shape"></path>
                </g>
            </g>
        </g>
    </g>
</svg>