<?xml version="1.0" encoding="UTF-8" standalone="no"?>
<svg width="191px" height="83px" viewBox="0 0 191 83" version="1.1" xmlns="http://www.w3.org/2000/svg" xmlns:xlink="http://www.w3.org/1999/xlink" xmlns:sketch="http://www.bohemiancoding.com/sketch/ns">
    <title>Slice 1</title>
    <description>Created with Sketch (http://www.bohemiancoding.com/sketch)</description>
    <defs></defs>
    <g id="Page-1" stroke="none" stroke-width="1" fill="none" fill-rule="evenodd" sketch:type="MSPage">
        <rect id="Rectangle-1" stroke="#979797" fill="#D8D8D8" sketch:type="MSShapeGroup" x="-46" y="-40" width="297" height="170"></rect>
        <g id="Group" sketch:type="MSLayerGroup" transform="translate(0.000000, -1.000000)" fill="#FFFFFF">
            <path d="M178.5,83.4 C178.4,83.2 178.2,83 178.1,82.8 C177.9,82.5 177.7,82.1 177.5,81.8 C177.3,81.4 177.6,80.9 178.1,80.6 C178.4,80.4 179,80.4 179.2,80.8 C179.5,81.1 179.9,81.2 180.3,81.3 C180.5,81.4 180.8,81.2 180.9,81 C181,80.8 180.9,80.7 180.8,80.6 C180.4,80.4 180.1,80.2 179.7,80.1 C179.6,80 179.4,80 179.2,80 C178.6,80 178.1,79.7 177.7,79.3 C177.6,79.3 177.6,79.2 177.6,79.1 C177.5,78.9 177.5,78.7 177.3,78.5 C177.1,78.2 176.9,78 176.8,77.8 C176.7,77.7 176.7,77.6 176.7,77.5 C176.7,77.2 176.5,77.1 176.4,76.9 C176.2,76.7 176.1,76.6 176,76.4 L175.5,75.9 C175.2,75.6 175,75.3 174.9,74.9 C174.8,74.6 174.6,74.4 174.4,74.2 C174.1,73.9 173.8,73.8 173.4,73.5 C173.1,73.3 172.9,73.2 172.6,73.2 C172.2,73.2 171.7,73.2 171.3,73.1 C171,73 170.6,72.9 170.4,72.6 C170.2,72.4 170,72.3 169.8,72.2 C169.7,72.1 169.5,72 169.4,71.9 C169.2,71.7 169.1,71.5 168.9,71.3 L168.8,71.2 C168.6,70.7 168.5,70.2 168.3,69.6 L168.3,69.3 C168.3,69.1 168.2,69 168.1,68.8 C168.1,68.7 168,68.6 168,68.5 C167.8,68 167.7,67.4 167.6,66.8 C167.6,66.7 167.5,66.6 167.5,66.5 C167.5,66.2 167.4,66 167.2,65.8 C167.1,65.7 167,65.5 166.9,65.4 L166.4,64.9 C166.2,64.7 166,64.4 165.7,64.2 C165.6,64.1 165.6,64 165.5,64 C165,63.8 164.8,63.3 164.5,62.9 C164.2,62.4 164.1,61.9 164.1,61.4 L164.1,59.7 C164.1,59.4 164,59 163.9,58.7 C163.9,58.5 163.8,58.4 163.9,58.2 C164,58 163.9,57.8 163.7,57.8 L163,57.8 C162.8,57.8 162.7,58 162.9,58.1 C163.4,58.5 163.3,59.1 163.3,59.7 C163.3,60 162.7,60.3 162.4,60.2 C162.3,60.2 162.1,60.1 162,60 C161.6,59.6 161.2,59.2 160.9,58.8 C160.5,58.3 160,57.8 159.7,57.3 L158.5,55.5 C158.4,55.3 158.3,55 158.2,54.8 L157.6,53.3 C157.6,53.2 157.5,53.2 157.5,53.1 C157.3,52.8 157.1,52.4 156.9,52.1 C156.7,51.7 156.5,51.2 156.1,50.9 C155.7,50.6 155.7,50.2 155.8,49.8 C155.8,49.7 156,49.5 156.1,49.4 C156.2,49.3 156.3,49.2 156.3,49.1 C156.3,48.7 156.4,48.3 156.7,48 C156.9,47.7 157.2,47.3 157.4,47 C157.5,46.8 157.7,46.7 157.7,46.5 C157.8,46.1 158.1,45.8 158.2,45.4 C158.4,45.1 158.5,44.7 158.4,44.3 C158.4,44.2 158.3,44.1 158.2,44 C158.1,44.1 158.1,44.2 158,44.3 L158,44.7 C158,44.9 157.9,45.1 157.7,45.2 C157.6,45.3 157.5,45.3 157.4,45.2 C157.1,44.9 156.8,44.6 156.7,44.1 C156.7,43.9 156.5,43.7 156.3,43.6 C156.1,43.5 155.9,43.4 155.8,43.2 C155.7,43.1 155.5,43.1 155.4,43.2 C155.3,43.3 155.3,43.5 155.5,43.6 C155.8,43.9 156.1,44.2 156.3,44.5 C156.5,44.7 156.4,44.9 156.4,45.1 C156.3,45.3 156.3,45.5 156.2,45.7 L156.2,46.4 C156.2,46.5 156.1,46.7 156.1,46.7 C155.8,46.9 155.5,47.1 155.2,46.9 C155.1,46.8 154.9,46.7 154.8,46.6 C154.5,46.2 154.3,45.7 153.8,45.4 C153.2,45.1 153,44.6 153,43.9 C153,43.3 153,42.8 153.1,42.2 C153.1,42.1 153.2,42 153.2,41.9 C153.3,41.6 153.3,41.4 153.2,41.1 C153.1,41 153.1,40.9 153.1,40.8 C153.2,40.3 153.3,39.9 153.4,39.4 C153.5,38.9 153.7,38.4 153.8,38 L153.8,37.9 L154.1,36.4 C154.1,36.2 154.2,36.1 154.2,35.9 C154.2,35.8 154.3,35.7 154.3,35.5 C154.3,34.9 154.5,34.2 154.3,33.6 C154.2,33.4 154.3,33.1 154.3,32.9 C154.4,32.6 154.4,32.3 154.1,32 C154,31.9 154,31.7 154,31.5 L154,31.1 C153.8,30.7 153.8,30.4 154,30 C154.2,29.6 153.9,29.3 153.7,29.1 C153.6,28.9 153.4,28.8 153.3,28.6 C153.1,28.4 153,28.1 152.8,27.8 C152.6,27.4 152.4,26.9 152.1,26.5 C152,26.4 151.8,26.3 151.6,26.3 C151.1,26.2 150.7,26.2 150.2,26.1 C149.8,26 149.4,25.8 149,25.7 C148.9,25.6 148.7,25.5 148.6,25.4 C148.3,25.2 148,24.9 147.7,24.6 L147.3,24.2 C147,23.8 146.6,23.3 146.3,22.9 C146.2,22.8 146,22.7 145.9,22.6 C145.7,22.4 145.4,22.3 145.2,22.1 C144.9,21.8 144.7,21.5 144.4,21.3 C143.9,21 143.7,20.5 143.6,20 C143.5,19.6 143.4,19.3 143.2,19 C142.9,18.6 142.5,18.2 142,18 C141.7,17.9 141.4,17.6 141.1,17.4 C141,17.3 141,17.2 141,17.1 C141,16.9 140.9,16.7 140.9,16.6 L140.9,16.5 C140.7,15.7 140,15.5 139.4,15.1 C139,14.9 138.6,14.9 138.1,14.7 C137.8,14.6 137.6,14.4 137.4,14.2 C137.1,14 136.8,13.8 136.6,13.6 C136.5,13.5 136.4,13.5 136.3,13.4 C136,13.2 135.7,13.1 135.4,13 L134.9,13 C134.3,13.2 133.8,13.3 133.2,13.2 C133,13.2 132.8,13.2 132.7,13.3 C132.5,13.4 132.3,13.6 132.1,13.8 C131.6,14.1 131.5,14.6 131.6,15.1 C131.7,15.7 131.5,15.9 130.8,15.9 L130.4,15.9 C129.9,15.8 129.5,16 129.1,16.3 C128.8,16.5 128.5,16.6 128.3,16.8 L127.1,17.7 C126.7,18 126.3,18.3 125.8,18.5 C125.5,18.7 125.2,18.6 125,18.4 C124.8,18.3 124.7,18.3 124.5,18.4 L123,19 C122.8,19.1 122.6,19 122.4,19 C121.9,19 121.5,19.2 121.1,19.5 C120.9,19.7 120.7,19.7 120.4,19.7 C120,19.7 119.7,19.8 119.4,19.9 L119.1,19.9 C118.9,19.6 118.7,19.4 118.5,19.1 C118.4,19 118.5,18.8 118.6,18.7 C118.7,18.6 118.8,18.4 118.9,18.4 C119.1,18.3 119.1,18.1 119,17.9 C118.8,17.5 118.7,17.1 118.5,16.7 C118.5,16.6 118.4,16.5 118.3,16.5 C118.1,16.2 117.8,16 117.6,15.7 C117.2,15.2 116.8,14.8 116.4,14.3 C116.2,14.1 116.1,14 116.1,13.7 C116.1,13.4 115.8,13.1 115.5,13 C115.2,12.9 114.9,12.8 114.7,12.7 C114.4,12.6 114.3,12.5 114.3,12.2 C114.3,11.9 114.2,11.7 114,11.6 C113.7,11.5 113.4,11.3 113.2,11.6 C112.8,12 112.4,11.9 111.9,11.7 C111,11.4 110.2,10.8 109.4,10.4 C109.2,10.3 108.9,10.3 108.7,10.2 C108.4,10.1 108,10.1 107.7,10.1 L107.3,10.1 C107,10.1 106.6,10.1 106.3,10 C105.9,9.9 105.7,9.6 105.8,9.2 C105.9,9 105.8,8.9 105.6,8.9 C105.3,8.9 105.1,8.9 104.9,9.1 C104.8,9.2 104.6,9.2 104.4,9.3 C103.7,9.5 102.9,9.9 102.1,9.8 C101.9,9.8 101.7,9.7 101.5,9.7 C101,9.7 100.5,9.8 100.1,9.9 C99.9,10 99.7,9.9 99.5,10 L99,10 C98.5,10.1 98,10.3 97.6,10.4 C97.3,10.5 96.9,10.5 96.6,10.5 C96.5,10.5 96.3,10.4 96.3,10.3 L96.3,9.9 C96.4,9.7 96.6,9.6 96.8,9.4 C96.8,9.4 96.9,9.3 96.9,9.2 C96.9,9.1 96.8,9.1 96.8,9.1 C96.7,9.1 96.5,9 96.5,9.1 C96.1,9.3 95.8,9.5 95.6,9.9 C95.5,10.2 95.3,10.4 95.2,10.7 C95.1,10.9 94.9,11 94.6,11.1 C94.1,11.2 93.7,11.4 93.3,11.6 C92.8,11.7 92.7,11.7 92.5,11.2 C92.4,11 92.3,10.8 92.3,10.7 C92.1,10.3 92.2,10 92.5,9.7 L92.6,9.6 C92.9,9.3 92.9,9.2 92.7,8.8 C92.5,8.6 92.5,8.4 92.6,8.1 C92.7,7.9 92.8,7.6 93,7.4 C93.1,7.2 93.1,7.1 93,6.9 C92.9,6.8 92.8,6.6 92.8,6.5 C92.8,6.3 92.7,6.2 92.6,6 C92.3,5.8 92,5.6 91.9,5.2 C91.9,5.1 91.8,5 91.7,5 C91.2,4.8 91,4.3 90.6,3.9 C90.4,3.7 90.4,3.5 90.4,3.2 L90.4,1.8 C90.4,1.7 90.5,1.6 90.5,1.5 C90.6,1.4 90.6,1.3 90.7,1.2 C90.5,1.1 90.6,1 90.9,1 C92.5,1 94,1 95.6,0.9 C96.5,0.8 97.4,0.9 98.3,0.8 C98.6,0.8 98.8,0.7 99.1,0.8 L99.4,0.8 C99.6,0.8 99.9,0.7 100.1,0.7 L102.8,0.7 C103.7,0.7 104.6,0.7 105.5,0.6 C106.9,0.3 108.4,0.6 109.8,0.5 C109.9,0.5 110.1,0.4 110.2,0.4 L123.2,0.4 C123.3,0.5 123.3,0.6 123.4,0.8 C123.6,1.1 123.9,1.4 124,1.9 C124,2.3 124.1,2.8 124.3,3.2 C124.5,3.7 124.8,4.1 125.3,4.1 C126,4.1 126.8,4.2 127.5,4.2 L145.8,4.2 L146.1,4.2 C146.3,4.2 146.6,4.3 146.8,4.3 L157.6,4.3 C158,4.3 158.2,4.4 158.3,4.8 C158.4,5 158.4,5.2 158.5,5.4 C158.6,5.8 158.8,6.2 158.9,6.7 C159,7.1 159.3,7.4 159.8,7.3 C160,7.3 160.1,7.2 160.2,7 C160.6,6.3 160.5,5.5 160.4,4.7 C160.3,4.4 160.2,4.1 160.2,3.8 C160.1,3.4 160.1,3.1 160,2.7 C160,2.4 159.9,2.1 159.9,1.8 C159.9,1.2 160.2,0.7 160.7,0.5 L160.8,0.5 L161.1,0.2 L162.7,0.2 C162.8,0.3 162.8,0.4 162.9,0.5 C163.2,0.7 163.5,0.8 163.8,0.9 C164.3,1 164.8,1.2 165.3,1.3 L165.5,1.3 C165.8,1.3 166.1,1.4 166.4,1.6 L167,1.9 C167.2,2 167.2,2.1 167.2,2.3 C167.1,2.8 167.2,3.3 167.5,3.7 C167.6,4 167.7,4.3 167.7,4.6 C167.7,5 167.7,5.4 167.8,5.8 C167.9,6.2 167.9,6.2 168.3,6.3 C168.7,6.4 168.9,6.5 169,6.9 C169.1,7.2 169.1,7.5 169.2,7.8 L169.2,7.9 C169.2,8.3 169.3,8.7 169.4,9 C169.5,9.4 169.7,9.9 169.8,10.3 C169.9,10.5 169.9,10.7 169.9,10.9 C169.9,11.1 170,11.3 170.1,11.4 C170.3,11.9 170.4,12.5 170.6,13 C170.7,13.4 170.8,13.7 171,14 C171.2,14.4 171.3,14.9 171.5,15.3 C171.7,15.7 172,16.1 172.2,16.5 C172.5,17.2 172.8,17.9 173.2,18.6 C173.5,19.2 173.7,19.8 174,20.5 C174.2,20.9 174.4,21.3 174.7,21.7 C174.8,21.8 174.8,22 174.9,22.1 C175.4,22.7 175.4,23.4 175.7,24 C175.8,24.3 175.9,24.5 176.2,24.7 C176.3,24.8 176.4,24.9 176.5,25.1 L176.8,25.7 C177,26.1 177.3,26.4 177.5,26.9 C177.6,27.2 177.8,27.5 178,27.8 C178.1,27.9 178.2,28 178.3,28 C178.7,28.1 178.9,28.3 179.2,28.6 C179.5,28.9 179.5,29.2 179.4,29.5 C179.3,29.6 179.4,29.8 179.4,29.9 C179.4,30.1 179.5,30.3 179.5,30.6 C179.5,31.3 179.5,31.4 180.3,31.5 C180.4,31.5 180.5,31.6 180.6,31.6 C181,32 181.2,32.5 181.2,33.1 C181.2,33.6 181.1,34.2 181.1,34.7 C181.1,35.2 181.1,35.7 181.2,36.1 C181.4,36.6 181.5,37.1 181.7,37.5 C181.9,37.9 182.1,38.4 182.2,38.8 C182.2,39.1 182.4,39.3 182.5,39.5 C182.6,39.7 182.8,39.9 182.8,40.2 C183,40.8 183.3,41.4 183.6,41.9 C183.8,42.2 184,42.5 184,42.9 C184,43 184,43.1 184.1,43.1 C184.5,43.6 184.8,44.1 185,44.7 C185,44.7 185,44.8 185.1,44.8 C185.4,45.3 185.8,45.8 185.9,46.5 C185.9,46.6 185.9,46.7 186,46.7 C186.4,47.1 186.4,47.7 186.7,48.1 C187,48.5 187.1,49 187.3,49.5 C187.3,49.6 187.3,49.6 187.4,49.7 C187.5,49.9 187.6,50 187.7,50.2 C187.9,50.6 188.3,50.9 188.4,51.3 C188.5,51.7 188.7,52 189,52.2 C189.2,52.4 189.3,52.6 189.4,52.8 C189.5,53 189.7,53.2 189.8,53.4 C189.9,53.7 190.1,53.9 190.2,54.2 C190.3,54.4 190.3,54.7 190.4,54.9 C190.5,55.2 190.7,55.5 190.6,55.9 L190.6,56.1 C190.7,56.7 190.8,57.2 190.9,57.8 C190.9,58 191,58.1 191,58.3 C191.1,58.6 191.2,59 191.3,59.3 L191.3,59.3 L191.3,70.9 C191.2,71 191.1,71.1 191,71.3 C190.9,71.5 190.9,71.7 190.8,71.9 C190.5,72.5 190.2,73.1 190,73.7 C189.8,74.1 189.7,74.5 189.6,74.9 C189.4,75.4 189.3,76 189.1,76.5 C189,76.8 189,77 189.1,77.3 C189.3,77.7 189.2,78.1 189.1,78.4 C189.1,78.5 189,78.7 189,78.8 C189,78.9 188.9,79 188.9,79.1 C188.9,79.2 188.8,79.3 188.8,79.4 C188.6,79.9 188.3,80.4 187.8,80.8 C187.7,80.9 187.6,81 187.4,81 C187,81.1 186.7,81.2 186.3,81.4 C186.1,81.5 185.9,81.6 185.8,81.7 C185.5,81.9 185.2,82.1 184.9,82.2 C184.5,82.4 184.1,82.5 183.8,82.6 C183.7,82.6 183.5,82.5 183.3,82.5 C182.9,82.3 182.6,82.3 182.3,82.6 C182.1,82.8 182,83 181.8,83.1 L180.8,83.1 C180.6,82.9 180.5,82.9 180.3,83.1 C179.6,83.4 179.1,83.4 178.5,83.4 L178.5,83.4 Z" id="Shape" sketch:type="MSShapeGroup"></path>
            <path d="M135.6,16.8 L127.3,24.4 L135.6,19.3 L143.8,24.4 L135.6,16.8 Z" id="Shape" sketch:type="MSShapeGroup"></path>
            <path d="M140.4,24.6 L137.5,24.6 L137.5,21.7 L133.6,21.7 L133.6,24.6 L130.7,24.6 L130.7,28.5 L133.6,28.5 L133.6,31.4 L137.5,31.4 L137.5,28.5 L140.4,28.5 L140.4,24.6 Z" id="Shape" sketch:type="MSShapeGroup"></path>
            <g transform="translate(0.000000, 9.000000)" id="Shape" sketch:type="MSShapeGroup">
                <path d="M2,19.2 L2,-0.3 L15.4,-0.3 L15.4,3 L5.9,3 L5.9,7.6 L14,7.6 L14,10.9 L5.9,10.9 L5.9,19.2 L2,19.2 L2,19.2 Z"></path>
                <path d="M17.2,19.2 L17.2,-0.3 L20.9,-0.3 L20.9,19.2 L17.2,19.2 L17.2,19.2 Z"></path>
                <path d="M22.5,11.9 C22.5,10.7 22.8,9.5 23.4,8.3 C24,7.1 24.9,6.3 26,5.6 C27.1,4.9 28.4,4.7 29.8,4.7 C31.9,4.7 33.7,5.4 35.1,6.8 C36.5,8.2 37.1,9.9 37.1,12.1 C37.1,14.2 36.4,16 35,17.4 C33.6,18.8 31.9,19.5 29.8,19.5 C28.5,19.5 27.3,19.2 26.1,18.6 C24.9,18 24,17.2 23.4,16 C22.8,14.9 22.5,13.5 22.5,11.9 L22.5,11.9 Z M26.4,12.1 C26.4,13.5 26.7,14.6 27.4,15.3 C28.1,16 28.9,16.4 29.9,16.4 C30.9,16.4 31.7,16 32.4,15.3 C33.1,14.6 33.4,13.5 33.4,12.1 C33.4,10.7 33.1,9.7 32.4,8.9 C31.7,8.2 30.9,7.8 29.9,7.8 C28.9,7.8 28.1,8.2 27.4,8.9 C26.7,9.6 26.4,10.7 26.4,12.1 L26.4,12.1 Z"></path>
                <path d="M42.3,19.2 L38.6,19.2 L38.6,5.1 L42,5.1 L42,7.1 C42.6,6.2 43.1,5.5 43.6,5.2 C44.1,4.9 44.6,4.7 45.2,4.7 C46.1,4.7 46.9,4.9 47.7,5.4 L46.5,8.7 C45.9,8.3 45.3,8.1 44.7,8.1 C44.2,8.1 43.7,8.2 43.4,8.5 C43,8.8 42.8,9.3 42.5,10.1 C42.3,10.9 42.2,12.4 42.2,14.8 L42.2,19.2 L42.3,19.2 Z"></path>
                <path d="M49,3.1 L49,-0.3 L52.7,-0.3 L52.7,3.2 L49,3.2 L49,3.1 Z M49,19.2 L49,5.1 L52.7,5.1 L52.7,19.2 L49,19.2 L49,19.2 Z"></path>
                <path d="M68.2,19.2 L64.7,19.2 L64.7,17.1 C64.1,17.9 63.4,18.5 62.7,18.9 C61.9,19.3 61.1,19.5 60.3,19.5 C58.7,19.5 57.3,18.8 56.1,17.5 C54.9,16.2 54.4,14.4 54.4,12 C54.4,9.6 55,7.8 56.1,6.5 C57.2,5.3 58.7,4.6 60.4,4.6 C62,4.6 63.3,5.3 64.5,6.6 L64.5,-0.4 L68.2,-0.4 L68.2,19.2 L68.2,19.2 Z M58.2,11.8 C58.2,13.3 58.4,14.4 58.8,15.1 C59.4,16.1 60.2,16.6 61.3,16.6 C62.2,16.6 62.9,16.2 63.5,15.5 C64.1,14.8 64.4,13.7 64.4,12.2 C64.4,10.6 64.1,9.4 63.5,8.7 C62.9,8 62.2,7.6 61.3,7.6 C60.4,7.6 59.7,8 59.1,8.7 C58.5,9.4 58.2,10.4 58.2,11.8 L58.2,11.8 Z"></path>
                <path d="M73.3,9.4 L69.9,8.8 C70.3,7.4 70.9,6.4 71.9,5.8 C72.8,5.1 74.2,4.8 76.1,4.8 C77.8,4.8 79,5 79.8,5.4 C80.6,5.8 81.2,6.3 81.5,6.9 C81.8,7.5 82,8.6 82,10.2 L82,14.6 C82,15.8 82.1,16.8 82.2,17.3 C82.3,17.9 82.5,18.5 82.9,19.2 L79.2,19.2 C79.1,19 79,18.6 78.8,18.1 C78.7,17.9 78.7,17.7 78.7,17.7 C78.1,18.3 77.4,18.8 76.7,19.1 C76,19.4 75.2,19.6 74.4,19.6 C72.9,19.6 71.8,19.2 71,18.4 C70.2,17.6 69.7,16.6 69.7,15.4 C69.7,14.6 69.9,13.9 70.3,13.3 C70.7,12.7 71.2,12.2 71.9,11.9 C72.6,11.6 73.6,11.3 74.9,11 C76.6,10.7 77.9,10.4 78.5,10.1 L78.5,9.7 C78.5,9 78.3,8.5 78,8.2 C77.6,7.9 77,7.7 76,7.7 C75.3,7.7 74.8,7.8 74.4,8.1 C73.8,8.3 73.5,8.7 73.3,9.4 L73.3,9.4 Z M78.3,12.4 C77.8,12.6 77.1,12.8 76,13 C75,13.2 74.3,13.4 74,13.7 C73.5,14 73.3,14.5 73.3,15 C73.3,15.5 73.5,16 73.9,16.4 C74.3,16.8 74.8,17 75.4,17 C76.1,17 76.7,16.8 77.3,16.3 C77.8,16 78,15.6 78.2,15.1 C78.3,14.8 78.3,14.2 78.3,13.3 L78.3,12.4 L78.3,12.4 Z"></path>
                <path d="M2,44.1 L2,24.6 L5.9,24.6 L5.9,32.3 L13.6,32.3 L13.6,24.6 L17.5,24.6 L17.5,44.1 L13.6,44.1 L13.6,35.6 L5.9,35.6 L5.9,44.1 L2,44.1 L2,44.1 Z"></path>
                <path d="M28.4,39.6 L32.1,40.2 C31.6,41.6 30.9,42.6 29.8,43.3 C28.8,44 27.5,44.4 25.9,44.4 C23.4,44.4 21.6,43.6 20.4,42 C19.5,40.7 19,39.1 19,37.1 C19,34.8 19.6,32.9 20.8,31.6 C22,30.3 23.6,29.6 25.4,29.6 C27.5,29.6 29.2,30.3 30.4,31.7 C31.6,33.1 32.2,35.2 32.1,38.1 L23,38.1 C23,39.2 23.3,40.1 23.9,40.7 C24.5,41.3 25.2,41.6 26.1,41.6 C26.7,41.6 27.2,41.4 27.6,41.1 C27.9,40.8 28.2,40.3 28.4,39.6 L28.4,39.6 Z M28.6,35.8 C28.6,34.7 28.3,33.9 27.8,33.3 C27.3,32.7 26.6,32.5 25.9,32.5 C25.1,32.5 24.4,32.8 23.9,33.4 C23.3,34 23,34.8 23,35.8 L28.6,35.8 L28.6,35.8 Z"></path>
                <path d="M37.4,34.3 L34,33.6 C34.4,32.2 35,31.2 36,30.6 C36.9,29.9 38.3,29.6 40.2,29.6 C41.9,29.6 43.1,29.8 43.9,30.2 C44.7,30.6 45.3,31.1 45.6,31.7 C45.9,32.3 46.1,33.4 46.1,35 L46.1,39.4 C46.1,40.6 46.2,41.6 46.3,42.1 C46.4,42.7 46.6,43.3 47,44 L43.3,44 C43.2,43.8 43.1,43.4 42.9,42.9 C42.8,42.7 42.8,42.5 42.8,42.5 C42.2,43.1 41.5,43.6 40.8,43.9 C40.1,44.2 39.3,44.4 38.5,44.4 C37,44.4 35.9,44 35.1,43.2 C34.3,42.4 33.8,41.4 33.8,40.2 C33.8,39.4 34,38.7 34.4,38.1 C34.8,37.5 35.3,37 36,36.7 C36.7,36.4 37.7,36.1 39,35.8 C40.7,35.5 42,35.2 42.6,34.9 L42.6,34.5 C42.6,33.8 42.4,33.3 42.1,33 C41.7,32.7 41.1,32.5 40.1,32.5 C39.4,32.5 38.9,32.6 38.5,32.9 C37.9,33.1 37.6,33.6 37.4,34.3 L37.4,34.3 Z M42.4,37.3 C41.9,37.5 41.2,37.7 40.1,37.9 C39.1,38.1 38.4,38.3 38.1,38.6 C37.6,38.9 37.4,39.4 37.4,39.9 C37.4,40.4 37.6,40.9 38,41.3 C38.4,41.7 38.9,41.9 39.5,41.9 C40.2,41.9 40.8,41.7 41.4,41.2 C41.9,40.9 42.1,40.5 42.3,40 C42.4,39.7 42.4,39.1 42.4,38.2 L42.4,37.3 L42.4,37.3 Z"></path>
                <path d="M48.4,44.1 L48.4,24.6 L52.1,24.6 L52.1,44.1 L48.4,44.1 L48.4,44.1 Z"></path>
                <path d="M61,29.9 L61,32.9 L58.4,32.9 L58.4,38.6 C58.4,39.8 58.4,40.4 58.5,40.6 C58.5,40.8 58.7,40.9 58.8,41.1 C59,41.2 59.2,41.3 59.4,41.3 C59.7,41.3 60.2,41.2 60.9,40.9 L61.2,43.8 C60.3,44.2 59.3,44.4 58.2,44.4 C57.5,44.4 56.9,44.3 56.4,44.1 C55.9,43.9 55.5,43.6 55.2,43.2 C54.9,42.8 54.8,42.4 54.7,41.7 C54.6,41.3 54.6,40.4 54.6,39.1 L54.6,32.9 L53,32.9 L53,29.9 L54.7,29.9 L54.7,27.1 L58.5,24.9 L58.5,29.9 L61,29.9 L61,29.9 Z"></path>
                <path d="M66,24.6 L66,31.8 C67.2,30.4 68.6,29.7 70.3,29.7 C71.2,29.7 71.9,29.9 72.6,30.2 C73.3,30.5 73.8,30.9 74.2,31.4 C74.6,31.9 74.8,32.4 74.9,33 C75,33.6 75.1,34.5 75.1,35.8 L75.1,44.1 L71.4,44.1 L71.4,36.6 C71.4,35.1 71.3,34.2 71.2,33.8 C71.1,33.4 70.8,33.1 70.4,32.8 C70,32.6 69.6,32.4 69.1,32.4 C68.5,32.4 67.9,32.6 67.4,32.9 C66.9,33.2 66.6,33.7 66.3,34.3 C66.1,34.9 66,35.8 66,37 L66,44.1 L62.3,44.1 L62.3,24.6 L66,24.6 L66,24.6 Z"></path>
                <path d="M96.3,36.9 L100.1,38.1 C99.5,40.2 98.5,41.8 97.2,42.8 C95.8,43.8 94.1,44.3 92,44.3 C89.4,44.3 87.3,43.4 85.6,41.6 C83.9,39.8 83.1,37.4 83.1,34.3 C83.1,31.1 83.9,28.5 85.6,26.7 C87.3,24.9 89.5,24 92.2,24 C94.6,24 96.5,24.7 98,26.1 C98.9,26.9 99.6,28.1 100,29.7 L96.1,30.6 C95.9,29.6 95.4,28.8 94.7,28.2 C94,27.6 93.1,27.3 92,27.3 C90.6,27.3 89.4,27.8 88.5,28.9 C87.6,29.9 87.2,31.6 87.2,33.9 C87.2,36.4 87.6,38.1 88.5,39.2 C89.4,40.2 90.5,40.8 92,40.8 C93,40.8 93.9,40.5 94.7,39.8 C95.4,39.4 95.9,38.3 96.3,36.9 L96.3,36.9 Z"></path>
                <path d="M104.9,34.3 L101.5,33.7 C101.9,32.3 102.5,31.3 103.5,30.7 C104.4,30 105.8,29.7 107.7,29.7 C109.4,29.7 110.6,29.9 111.4,30.3 C112.2,30.7 112.8,31.2 113.1,31.8 C113.4,32.4 113.6,33.5 113.6,35.1 L113.6,39.5 C113.6,40.7 113.7,41.7 113.8,42.2 C113.9,42.7 114.1,43.4 114.5,44.1 L110.8,44.1 C110.7,43.9 110.6,43.5 110.4,43 C110.3,42.8 110.3,42.6 110.3,42.6 C109.7,43.2 109,43.7 108.3,44 C107.6,44.3 106.8,44.5 106,44.5 C104.5,44.5 103.4,44.1 102.6,43.3 C101.8,42.5 101.3,41.5 101.3,40.3 C101.3,39.5 101.5,38.8 101.9,38.2 C102.3,37.6 102.8,37.1 103.5,36.8 C104.2,36.5 105.2,36.2 106.5,35.9 C108.2,35.6 109.5,35.3 110.1,35 L110.1,34.6 C110.1,33.9 109.9,33.4 109.6,33.1 C109.2,32.8 108.6,32.6 107.6,32.6 C106.9,32.6 106.4,32.7 106,33 C105.4,33.1 105.1,33.6 104.9,34.3 L104.9,34.3 Z M109.9,37.3 C109.4,37.5 108.7,37.7 107.6,37.9 C106.6,38.1 105.9,38.3 105.6,38.6 C105.1,38.9 104.9,39.4 104.9,39.9 C104.9,40.4 105.1,40.9 105.5,41.3 C105.9,41.7 106.4,41.9 107,41.9 C107.7,41.9 108.3,41.7 108.9,41.2 C109.4,40.9 109.6,40.5 109.8,40 C109.9,39.7 109.9,39.1 109.9,38.2 L109.9,37.3 L109.9,37.3 Z"></path>
                <path d="M120,44.1 L116.3,44.1 L116.3,29.9 L119.8,29.9 L119.8,31.9 C120.4,31 120.9,30.3 121.4,30 C121.9,29.7 122.4,29.5 123,29.5 C123.9,29.5 124.7,29.7 125.5,30.2 L124.3,33.5 C123.7,33.1 123.1,32.9 122.5,32.9 C122,32.9 121.5,33 121.2,33.3 C120.9,33.6 120.6,34.1 120.3,34.9 C120.1,35.7 120,37.2 120,39.6 L120,44.1 L120,44.1 Z"></path>
                <path d="M134.4,39.6 L138.1,40.2 C137.6,41.6 136.9,42.6 135.8,43.3 C134.8,44 133.5,44.4 131.9,44.4 C129.4,44.4 127.6,43.6 126.4,42 C125.5,40.7 125,39.1 125,37.1 C125,34.8 125.6,32.9 126.8,31.6 C128,30.3 129.6,29.6 131.4,29.6 C133.5,29.6 135.2,30.3 136.4,31.7 C137.6,33.1 138.2,35.2 138.1,38.1 L128.7,38.1 C128.7,39.2 129,40.1 129.6,40.7 C130.2,41.3 130.9,41.6 131.8,41.6 C132.4,41.6 132.9,41.4 133.3,41.1 C133.9,40.8 134.2,40.3 134.4,39.6 L134.4,39.6 Z M134.6,35.8 C134.6,34.7 134.3,33.9 133.8,33.3 C133.3,32.7 132.6,32.5 131.9,32.5 C131.1,32.5 130.4,32.8 129.9,33.4 C129.4,34 129.1,34.8 129.1,35.8 L134.6,35.8 L134.6,35.8 Z"></path>
                <path d="M19.5,69 L15.2,69 L13.5,64.6 L5.7,64.6 L4.1,69 L0,69 L7.6,49.5 L11.8,49.5 L19.5,69 L19.5,69 Z M12.3,61.2 L9.6,54 L7,61.2 L12.3,61.2 L12.3,61.2 Z"></path>
                <path d="M18.9,64.9 L22.7,64.3 C22.9,65 23.2,65.6 23.7,66 C24.2,66.4 24.9,66.6 25.7,66.6 C26.7,66.6 27.4,66.4 27.9,66.1 C28.2,65.9 28.4,65.5 28.4,65.1 C28.4,64.8 28.3,64.6 28.1,64.4 C27.9,64.2 27.5,64.1 26.8,63.9 C23.8,63.2 21.9,62.6 21.1,62.1 C20,61.3 19.4,60.3 19.4,58.9 C19.4,57.7 19.9,56.6 20.9,55.8 C21.9,55 23.4,54.5 25.4,54.5 C27.3,54.5 28.8,54.8 29.7,55.4 C30.6,56 31.3,57 31.6,58.2 L28.1,58.9 C27.9,58.3 27.7,57.9 27.2,57.6 C26.8,57.3 26.2,57.2 25.4,57.2 C24.4,57.2 23.7,57.3 23.3,57.6 C23,57.8 22.9,58 22.9,58.4 C22.9,58.7 23,58.9 23.3,59.1 C23.6,59.3 24.8,59.7 26.8,60.2 C28.8,60.7 30.2,61.2 31,61.9 C31.8,62.6 32.2,63.5 32.2,64.7 C32.2,66 31.7,67.1 30.6,68 C29.5,68.9 27.9,69.4 25.8,69.4 C23.9,69.4 22.4,69 21.2,68.2 C20,67.3 19.3,66.3 18.9,64.9 L18.9,64.9 Z"></path>
                <path d="M32.7,64.9 L36.5,64.3 C36.7,65 37,65.6 37.5,66 C38,66.4 38.7,66.6 39.5,66.6 C40.5,66.6 41.2,66.4 41.7,66.1 C42,65.9 42.2,65.5 42.2,65.1 C42.2,64.8 42.1,64.6 41.9,64.4 C41.7,64.2 41.3,64.1 40.6,63.9 C37.6,63.2 35.7,62.6 34.9,62.1 C33.8,61.3 33.2,60.3 33.2,58.9 C33.2,57.7 33.7,56.6 34.7,55.8 C35.7,55 37.2,54.5 39.2,54.5 C41.1,54.5 42.6,54.8 43.5,55.4 C44.4,56 45.1,57 45.4,58.2 L41.9,58.9 C41.7,58.3 41.5,57.9 41,57.6 C40.6,57.3 40,57.2 39.2,57.2 C38.2,57.2 37.5,57.3 37.1,57.6 C36.8,57.8 36.7,58 36.7,58.4 C36.7,58.7 36.8,58.9 37.1,59.1 C37.4,59.3 38.6,59.7 40.6,60.2 C42.6,60.7 44,61.2 44.8,61.9 C45.6,62.6 46,63.5 46,64.7 C46,66 45.5,67.1 44.4,68 C43.3,68.9 41.7,69.4 39.6,69.4 C37.7,69.4 36.2,69 35,68.2 C33.8,67.3 33.1,66.3 32.7,64.9 L32.7,64.9 Z"></path>
                <path d="M47,61.7 C47,60.5 47.3,59.3 47.9,58.1 C48.5,56.9 49.4,56.1 50.5,55.4 C51.6,54.7 52.9,54.5 54.3,54.5 C56.4,54.5 58.2,55.2 59.6,56.6 C61,58 61.6,59.7 61.6,61.9 C61.6,64 60.9,65.8 59.5,67.2 C58.1,68.6 56.4,69.3 54.3,69.3 C53,69.3 51.8,69 50.6,68.4 C49.4,67.8 48.5,67 47.9,65.8 C47.3,64.7 47,63.3 47,61.7 L47,61.7 Z M50.8,61.9 C50.8,63.3 51.1,64.4 51.8,65.1 C52.5,65.8 53.3,66.2 54.3,66.2 C55.3,66.2 56.1,65.8 56.8,65.1 C57.5,64.4 57.8,63.3 57.8,61.9 C57.8,60.5 57.5,59.5 56.8,58.7 C56.1,58 55.3,57.6 54.3,57.6 C53.3,57.6 52.5,58 51.8,58.7 C51.1,59.4 50.8,60.5 50.8,61.9 L50.8,61.9 Z"></path>
                <path d="M75.4,59 L71.7,59.7 C71.6,59 71.3,58.4 70.9,58 C70.5,57.6 69.9,57.4 69.2,57.4 C68.3,57.4 67.5,57.7 67,58.4 C66.4,59 66.2,60.1 66.2,61.6 C66.2,63.3 66.5,64.5 67,65.2 C67.6,65.9 68.3,66.2 69.3,66.2 C70,66.2 70.6,66 71,65.6 C71.5,65.2 71.8,64.5 72,63.5 L75.7,64.1 C75.3,65.8 74.6,67.1 73.5,67.9 C72.4,68.8 71,69.2 69.1,69.2 C67,69.2 65.4,68.5 64.2,67.2 C63,65.9 62.4,64.1 62.4,61.8 C62.4,59.5 63,57.7 64.2,56.4 C65.4,55.1 67.1,54.5 69.2,54.5 C70.9,54.5 72.3,54.9 73.3,55.6 C74.2,56.4 75,57.5 75.4,59 L75.4,59 Z"></path>
                <path d="M76.9,52.9 L76.9,49.4 L80.6,49.4 L80.6,52.9 L76.9,52.9 L76.9,52.9 Z M76.9,69 L76.9,54.8 L80.6,54.8 L80.6,69 L76.9,69 L76.9,69 Z"></path>
                <path d="M85.9,59.1 L82.5,58.5 C82.9,57.1 83.5,56.1 84.5,55.5 C85.4,54.8 86.8,54.5 88.7,54.5 C90.4,54.5 91.6,54.7 92.4,55.1 C93.2,55.5 93.8,56 94.1,56.6 C94.4,57.2 94.6,58.3 94.6,59.9 L94.6,64.3 C94.6,65.5 94.7,66.5 94.8,67 C94.9,67.6 95.1,68.2 95.5,68.9 L91.8,68.9 C91.7,68.7 91.6,68.3 91.4,67.8 C91.3,67.6 91.3,67.4 91.3,67.4 C90.7,68 90,68.5 89.3,68.8 C88.6,69.1 87.8,69.3 87,69.3 C85.5,69.3 84.4,68.9 83.6,68.1 C82.8,67.3 82.3,66.3 82.3,65.1 C82.3,64.3 82.5,63.6 82.9,63 C83.3,62.4 83.8,61.9 84.5,61.6 C85.2,61.3 86.2,61 87.5,60.7 C89.2,60.4 90.5,60.1 91.1,59.8 L91.1,59.4 C91.1,58.7 90.9,58.2 90.6,57.9 C90.2,57.6 89.6,57.4 88.6,57.4 C87.9,57.4 87.4,57.5 87,57.8 C86.4,58 86.1,58.5 85.9,59.1 L85.9,59.1 Z M90.9,62.2 C90.4,62.4 89.7,62.6 88.6,62.8 C87.6,63 86.9,63.2 86.6,63.5 C86.1,63.8 85.9,64.3 85.9,64.8 C85.9,65.3 86.1,65.8 86.5,66.2 C86.9,66.6 87.4,66.8 88,66.8 C88.7,66.8 89.3,66.6 89.9,66.1 C90.4,65.8 90.6,65.4 90.8,64.9 C90.9,64.6 90.9,64 90.9,63.1 L90.9,62.2 L90.9,62.2 Z"></path>
                <path d="M103.9,54.8 L103.9,57.8 L101.3,57.8 L101.3,63.5 C101.3,64.7 101.3,65.3 101.4,65.5 C101.4,65.7 101.6,65.8 101.7,66 C101.9,66.1 102.1,66.2 102.3,66.2 C102.6,66.2 103.1,66.1 103.8,65.8 L104.1,68.7 C103.2,69.1 102.2,69.3 101.1,69.3 C100.4,69.3 99.8,69.2 99.3,69 C98.8,68.8 98.4,68.5 98.1,68.1 C97.8,67.7 97.7,67.3 97.6,66.6 C97.5,66.2 97.5,65.3 97.5,64 L97.5,57.8 L95.8,57.8 L95.8,54.8 L97.5,54.8 L97.5,52 L101.3,49.8 L101.3,54.8 L103.9,54.8 L103.9,54.8 Z"></path>
                <path d="M106.2,52.9 L106.2,49.4 L109.9,49.4 L109.9,52.9 L106.2,52.9 L106.2,52.9 Z M106.2,69 L106.2,54.8 L109.9,54.8 L109.9,69 L106.2,69 L106.2,69 Z"></path>
                <path d="M111.6,61.7 C111.6,60.5 111.9,59.3 112.5,58.1 C113.1,56.9 114,56.1 115.1,55.4 C116.2,54.7 117.5,54.5 118.9,54.5 C121,54.5 122.8,55.2 124.2,56.6 C125.6,58 126.2,59.7 126.2,61.9 C126.2,64 125.5,65.8 124.1,67.2 C122.7,68.6 121,69.3 118.9,69.3 C117.6,69.3 116.4,69 115.2,68.4 C114,67.8 113.1,67 112.5,65.8 C111.9,64.7 111.6,63.3 111.6,61.7 L111.6,61.7 Z M115.4,61.9 C115.4,63.3 115.7,64.4 116.4,65.1 C117.1,65.8 117.9,66.2 118.9,66.2 C119.9,66.2 120.7,65.8 121.4,65.1 C122.1,64.4 122.4,63.3 122.4,61.9 C122.4,60.5 122.1,59.5 121.4,58.7 C120.7,58 119.9,57.6 118.9,57.6 C117.9,57.6 117.1,58 116.4,58.7 C115.7,59.4 115.4,60.5 115.4,61.9 L115.4,61.9 Z"></path>
                <path d="M140.6,69 L136.9,69 L136.9,61.8 C136.9,60.3 136.8,59.3 136.7,58.8 C136.5,58.4 136.3,58 135.9,57.8 C135.5,57.6 135.1,57.4 134.6,57.4 C134,57.4 133.4,57.6 132.9,57.9 C132.4,58.3 132,58.7 131.8,59.3 C131.6,59.9 131.5,61 131.5,62.5 L131.5,69 L127.8,69 L127.8,54.8 L131.3,54.8 L131.3,56.9 C132.5,55.3 134.1,54.5 136,54.5 C136.8,54.5 137.6,54.6 138.3,54.9 C139,55.2 139.5,55.6 139.8,56 C140.2,56.5 140.4,57 140.5,57.6 C140.6,58.2 140.7,59 140.7,60.1 L140.7,69 L140.6,69 Z"></path>
            </g>
        </g>
    </g>
</svg>